<svg xmlns="http://www.w3.org/2000/svg" xmlns:xlink="http://www.w3.org/1999/xlink" width="1144pt" height="2191pt" viewBox="0.00 0.00 1144.01 2190.92">
<g id="graph0" class="graph" transform="scale(1 1) rotate(0) translate(4 2186.92)">
<title>G</title>
<polygon fill="white" stroke="none" points="-4,4 -4,-2186.92 1140.01,-2186.92 1140.01,4 -4,4"/>
<!-- load_elf_phdrs -->
<g id="node1" class="node">
<title>load_elf_phdrs</title>
<ellipse fill="none" stroke="black" cx="838.99" cy="-1498" rx="68.96" ry="18"/>
<text text-anchor="middle" x="838.99" y="-1493.8" font-family="Times,serif" font-size="14.00">load_elf_phdrs</text>
</g>
<!-- kernel_read -->
<g id="node25" class="node">
<title>kernel_read</title>
<ellipse fill="none" stroke="black" cx="1079.4" cy="-2068" rx="56.61" ry="18"/>
<text text-anchor="middle" x="1079.4" y="-2063.8" font-family="Times,serif" font-size="14.00">kernel_read</text>
</g>
<!-- load_elf_phdrs&#45;&gt;kernel_read -->
<g id="edge27" class="edge">
<title>load_elf_phdrs-&gt;kernel_read</title>
<path fill="none" stroke="black" d="M894.66,-1508.83C926.3,-1517.96 964.21,-1534.31 986.79,-1563 1045.91,-1638.13 1070.29,-1942.1 1076.63,-2038.51"/>
<polygon fill="black" stroke="black" points="1073.12,-2038.44 1077.25,-2048.2 1080.1,-2037.99 1073.12,-2038.44"/>
</g>
<!-- __kmalloc -->
<g id="node28" class="node">
<title>__kmalloc</title>
<ellipse fill="none" stroke="black" cx="1079.4" cy="-1525" rx="51.8" ry="18"/>
<text text-anchor="middle" x="1079.4" y="-1520.8" font-family="Times,serif" font-size="14.00">__kmalloc</text>
</g>
<!-- load_elf_phdrs&#45;&gt;__kmalloc -->
<g id="edge26" class="edge">
<title>load_elf_phdrs-&gt;__kmalloc</title>
<path fill="none" stroke="black" d="M902.94,-1505.13C938.79,-1509.19 983.46,-1514.25 1018.75,-1518.24"/>
<polygon fill="black" stroke="black" points="1018.02,-1521.68 1028.35,-1519.33 1018.81,-1514.73 1018.02,-1521.68"/>
</g>
<!-- kfree -->
<g id="node29" class="node">
<title>kfree</title>
<ellipse fill="none" stroke="black" cx="1079.4" cy="-1462" rx="30.87" ry="18"/>
<text text-anchor="middle" x="1079.4" y="-1457.8" font-family="Times,serif" font-size="14.00">kfree</text>
</g>
<!-- load_elf_phdrs&#45;&gt;kfree -->
<g id="edge28" class="edge">
<title>load_elf_phdrs-&gt;kfree</title>
<path fill="none" stroke="black" d="M899.54,-1489.01C942.78,-1482.48 1000.15,-1473.82 1038.12,-1468.08"/>
<polygon fill="black" stroke="black" points="1038.38,-1471.58 1047.74,-1466.63 1037.33,-1464.66 1038.38,-1471.58"/>
</g>
<!-- load_elf_binary -->
<g id="node2" class="node">
<title>load_elf_binary</title>
<ellipse fill="none" stroke="black" cx="524.56" cy="-1136" rx="72.18" ry="18"/>
<text text-anchor="middle" x="524.56" y="-1131.8" font-family="Times,serif" font-size="14.00">load_elf_binary</text>
</g>
<!-- load_elf_binary&#45;&gt;load_elf_phdrs -->
<g id="edge29" class="edge">
<title>load_elf_binary-&gt;load_elf_phdrs</title>
<path fill="none" stroke="black" d="M528.96,-1154.11C540.5,-1210.23 583.59,-1382.47 691.19,-1466 710.49,-1480.98 735.32,-1489.29 759.04,-1493.79"/>
<polygon fill="black" stroke="black" points="758.28,-1497.21 768.72,-1495.41 759.43,-1490.31 758.28,-1497.21"/>
</g>
<!-- memset -->
<g id="node10" class="node">
<title>memset</title>
<ellipse fill="none" stroke="black" cx="838.99" cy="-2114" rx="41.07" ry="18"/>
<text text-anchor="middle" x="838.99" y="-2109.8" font-family="Times,serif" font-size="14.00">memset</text>
</g>
<!-- load_elf_binary&#45;&gt;memset -->
<g id="edge65" class="edge">
<title>load_elf_binary-&gt;memset</title>
<path fill="none" stroke="black" d="M531.56,-1154.29C552.53,-1218.97 622.96,-1443.28 655.19,-1634 663.51,-1683.24 658.33,-2044.4 691.19,-2082 714.6,-2108.8 754.75,-2116.12 787.14,-2117.12"/>
<polygon fill="black" stroke="black" points="786.69,-2120.61 796.73,-2117.21 786.76,-2113.61 786.69,-2120.61"/>
</g>
<!-- fput -->
<g id="node21" class="node">
<title>fput</title>
<ellipse fill="none" stroke="black" cx="838.99" cy="-56" rx="27" ry="18"/>
<text text-anchor="middle" x="838.99" y="-51.8" font-family="Times,serif" font-size="14.00">fput</text>
</g>
<!-- load_elf_binary&#45;&gt;fput -->
<g id="edge33" class="edge">
<title>load_elf_binary-&gt;fput</title>
<path fill="none" stroke="black" d="M596.83,-1137.42C618.73,-1134.06 640.82,-1126.05 655.19,-1109 728.69,-1021.77 616.66,-169.36 691.19,-83 717.77,-52.2 766.95,-49.02 801.03,-51.17"/>
<polygon fill="black" stroke="black" points="800.62,-54.65 810.88,-51.99 801.2,-47.67 800.62,-54.65"/>
</g>
<!-- load_elf_binary&#45;&gt;kernel_read -->
<g id="edge35" class="edge">
<title>load_elf_binary-&gt;kernel_read</title>
<path fill="none" stroke="black" d="M531.52,-1154.3C552.34,-1219 622.35,-1443.39 655.19,-1634 663.04,-1679.61 657.85,-2016.89 691.19,-2049 735.72,-2091.89 915.77,-2083.01 1013.89,-2074.57"/>
<polygon fill="black" stroke="black" points="1013.98,-2078.07 1023.64,-2073.7 1013.37,-2071.1 1013.98,-2078.07"/>
</g>
<!-- load_elf_binary&#45;&gt;__kmalloc -->
<g id="edge40" class="edge">
<title>load_elf_binary-&gt;__kmalloc</title>
<path fill="none" stroke="black" d="M526.67,-1154.22C531.7,-1218.73 558.32,-1437.16 691.19,-1525 743.34,-1559.48 924.1,-1543.86 1019.07,-1532.73"/>
<polygon fill="black" stroke="black" points="1019.47,-1536.21 1028.99,-1531.55 1018.64,-1529.26 1019.47,-1536.21"/>
</g>
<!-- load_elf_binary&#45;&gt;kfree -->
<g id="edge49" class="edge">
<title>load_elf_binary-&gt;kfree</title>
<path fill="none" stroke="black" d="M529.38,-1154.09C541.76,-1207.66 586.2,-1365.94 691.19,-1433 747.54,-1469 949.08,-1466.62 1036.95,-1463.72"/>
<polygon fill="black" stroke="black" points="1036.94,-1467.23 1046.81,-1463.38 1036.69,-1460.23 1036.94,-1467.23"/>
</g>
<!-- _copy_to_user_9 -->
<g id="node30" class="node">
<title>_copy_to_user_9</title>
<ellipse fill="none" stroke="black" cx="838.99" cy="-1406" rx="77.55" ry="18"/>
<text text-anchor="middle" x="838.99" y="-1401.8" font-family="Times,serif" font-size="14.00">_copy_to_user_9</text>
</g>
<!-- load_elf_binary&#45;&gt;_copy_to_user_9 -->
<g id="edge30" class="edge">
<title>load_elf_binary-&gt;_copy_to_user_9</title>
<path fill="none" stroke="black" d="M532.22,-1154.29C550.03,-1200.42 603.48,-1321.89 691.19,-1379 708.86,-1390.51 730.13,-1397.43 750.92,-1401.51"/>
<polygon fill="black" stroke="black" points="750.12,-1404.93 760.58,-1403.19 751.32,-1398.03 750.12,-1404.93"/>
</g>
<!-- total_mapping_size -->
<g id="node31" class="node">
<title>total_mapping_size</title>
<ellipse fill="none" stroke="black" cx="838.99" cy="-1352" rx="86.67" ry="18"/>
<text text-anchor="middle" x="838.99" y="-1347.8" font-family="Times,serif" font-size="14.00">total_mapping_size</text>
</g>
<!-- load_elf_binary&#45;&gt;total_mapping_size -->
<g id="edge31" class="edge">
<title>load_elf_binary-&gt;total_mapping_size</title>
<path fill="none" stroke="black" d="M535.65,-1154.14C558.07,-1192.61 616.07,-1282.34 691.19,-1325 707.4,-1334.21 726.11,-1340.38 744.61,-1344.48"/>
<polygon fill="black" stroke="black" points="743.8,-1347.89 754.29,-1346.43 745.18,-1341.03 743.8,-1347.89"/>
</g>
<!-- finalize_exec -->
<g id="node32" class="node">
<title>finalize_exec</title>
<ellipse fill="none" stroke="black" cx="838.99" cy="-1298" rx="62.5" ry="18"/>
<text text-anchor="middle" x="838.99" y="-1293.8" font-family="Times,serif" font-size="14.00">finalize_exec</text>
</g>
<!-- load_elf_binary&#45;&gt;finalize_exec -->
<g id="edge32" class="edge">
<title>load_elf_binary-&gt;finalize_exec</title>
<path fill="none" stroke="black" d="M541.45,-1153.79C568.87,-1183.28 628.21,-1241.9 691.19,-1271 714.54,-1281.79 741.87,-1288.28 766.57,-1292.17"/>
<polygon fill="black" stroke="black" points="765.81,-1295.6 776.21,-1293.56 766.81,-1288.67 765.81,-1295.6"/>
</g>
<!-- cpu_get_elf_hwcap -->
<g id="node33" class="node">
<title>cpu_get_elf_hwcap</title>
<ellipse fill="none" stroke="black" cx="838.99" cy="-1244" rx="86.65" ry="18"/>
<text text-anchor="middle" x="838.99" y="-1239.8" font-family="Times,serif" font-size="14.00">cpu_get_elf_hwcap</text>
</g>
<!-- load_elf_binary&#45;&gt;cpu_get_elf_hwcap -->
<g id="edge34" class="edge">
<title>load_elf_binary-&gt;cpu_get_elf_hwcap</title>
<path fill="none" stroke="black" d="M553.87,-1152.83C586.06,-1171.25 640.72,-1200.37 691.19,-1217 710.91,-1223.5 732.68,-1228.58 753.27,-1232.49"/>
<polygon fill="black" stroke="black" points="752.62,-1235.93 763.09,-1234.27 753.87,-1229.04 752.62,-1235.93"/>
</g>
<!-- allow_write_access_2 -->
<g id="node34" class="node">
<title>allow_write_access_2</title>
<ellipse fill="none" stroke="black" cx="838.99" cy="-1190" rx="96.31" ry="18"/>
<text text-anchor="middle" x="838.99" y="-1185.8" font-family="Times,serif" font-size="14.00">allow_write_access_2</text>
</g>
<!-- load_elf_binary&#45;&gt;allow_write_access_2 -->
<g id="edge36" class="edge">
<title>load_elf_binary-&gt;allow_write_access_2</title>
<path fill="none" stroke="black" d="M584.69,-1146.22C633,-1154.57 701.83,-1166.47 755.55,-1175.75"/>
<polygon fill="black" stroke="black" points="754.83,-1179.18 765.28,-1177.43 756.03,-1172.28 754.83,-1179.18"/>
</g>
<!-- strnlen_user -->
<g id="node35" class="node">
<title>strnlen_user</title>
<ellipse fill="none" stroke="black" cx="838.99" cy="-1136" rx="58.24" ry="18"/>
<text text-anchor="middle" x="838.99" y="-1131.8" font-family="Times,serif" font-size="14.00">strnlen_user</text>
</g>
<!-- load_elf_binary&#45;&gt;strnlen_user -->
<g id="edge37" class="edge">
<title>load_elf_binary-&gt;strnlen_user</title>
<path fill="none" stroke="black" d="M596.85,-1136C648.5,-1136 717.95,-1136 769.06,-1136"/>
<polygon fill="black" stroke="black" points="768.81,-1139.5 778.81,-1136 768.81,-1132.5 768.81,-1139.5"/>
</g>
<!-- cpu_get_elf_hwcap2 -->
<g id="node36" class="node">
<title>cpu_get_elf_hwcap2</title>
<ellipse fill="none" stroke="black" cx="838.99" cy="-1082" rx="91.48" ry="18"/>
<text text-anchor="middle" x="838.99" y="-1077.8" font-family="Times,serif" font-size="14.00">cpu_get_elf_hwcap2</text>
</g>
<!-- load_elf_binary&#45;&gt;cpu_get_elf_hwcap2 -->
<g id="edge38" class="edge">
<title>load_elf_binary-&gt;cpu_get_elf_hwcap2</title>
<path fill="none" stroke="black" d="M584.69,-1125.78C633.66,-1117.32 703.72,-1105.21 757.75,-1095.87"/>
<polygon fill="black" stroke="black" points="758.27,-1099.33 767.53,-1094.18 757.08,-1092.43 758.27,-1099.33"/>
</g>
<!-- arch_align_stack -->
<g id="node37" class="node">
<title>arch_align_stack</title>
<ellipse fill="none" stroke="black" cx="838.99" cy="-1028" rx="76.46" ry="18"/>
<text text-anchor="middle" x="838.99" y="-1023.8" font-family="Times,serif" font-size="14.00">arch_align_stack</text>
</g>
<!-- load_elf_binary&#45;&gt;arch_align_stack -->
<g id="edge39" class="edge">
<title>load_elf_binary-&gt;arch_align_stack</title>
<path fill="none" stroke="black" d="M595.08,-1131.59C615.76,-1127.73 637.57,-1120.9 655.19,-1109 679.09,-1092.85 667.1,-1070.86 691.19,-1055 708.98,-1043.28 730.49,-1036.31 751.49,-1032.23"/>
<polygon fill="black" stroke="black" points="751.98,-1035.7 761.25,-1030.56 750.8,-1028.8 751.98,-1035.7"/>
</g>
<!-- up_write -->
<g id="node38" class="node">
<title>up_write</title>
<ellipse fill="none" stroke="black" cx="838.99" cy="-974" rx="45.36" ry="18"/>
<text text-anchor="middle" x="838.99" y="-969.8" font-family="Times,serif" font-size="14.00">up_write</text>
</g>
<!-- load_elf_binary&#45;&gt;up_write -->
<g id="edge41" class="edge">
<title>load_elf_binary-&gt;up_write</title>
<path fill="none" stroke="black" d="M596.87,-1134.39C617.74,-1130.66 639.22,-1123.21 655.19,-1109 692.98,-1075.36 653,-1034.19 691.19,-1001 715.99,-979.45 752.24,-972.62 782.51,-971.22"/>
<polygon fill="black" stroke="black" points="782.36,-974.72 792.27,-970.97 782.18,-967.73 782.36,-974.72"/>
</g>
<!-- randomize_stack_top -->
<g id="node39" class="node">
<title>randomize_stack_top</title>
<ellipse fill="none" stroke="black" cx="838.99" cy="-920" rx="93.63" ry="18"/>
<text text-anchor="middle" x="838.99" y="-915.8" font-family="Times,serif" font-size="14.00">randomize_stack_top</text>
</g>
<!-- load_elf_binary&#45;&gt;randomize_stack_top -->
<g id="edge42" class="edge">
<title>load_elf_binary-&gt;randomize_stack_top</title>
<path fill="none" stroke="black" d="M597.11,-1135.48C618.24,-1131.85 639.81,-1124.18 655.19,-1109 707.69,-1057.19 638.08,-998.19 691.19,-947 703.09,-935.53 718.17,-928.1 734.11,-923.41"/>
<polygon fill="black" stroke="black" points="734.96,-926.8 743.79,-920.95 733.24,-920.02 734.96,-926.8"/>
</g>
<!-- setup_new_exec -->
<g id="node40" class="node">
<title>setup_new_exec</title>
<ellipse fill="none" stroke="black" cx="838.99" cy="-866" rx="74.85" ry="18"/>
<text text-anchor="middle" x="838.99" y="-861.8" font-family="Times,serif" font-size="14.00">setup_new_exec</text>
</g>
<!-- load_elf_binary&#45;&gt;setup_new_exec -->
<g id="edge43" class="edge">
<title>load_elf_binary-&gt;setup_new_exec</title>
<path fill="none" stroke="black" d="M596.93,-1136.08C618.31,-1132.53 640.06,-1124.75 655.19,-1109 722.61,-1038.81 622.95,-962.39 691.19,-893 707.58,-876.33 730.66,-868.05 753.67,-864.33"/>
<polygon fill="black" stroke="black" points="753.97,-867.82 763.43,-863.05 753.06,-860.88 753.97,-867.82"/>
</g>
<!-- arch_randomize_brk -->
<g id="node41" class="node">
<title>arch_randomize_brk</title>
<ellipse fill="none" stroke="black" cx="838.99" cy="-812" rx="90.94" ry="18"/>
<text text-anchor="middle" x="838.99" y="-807.8" font-family="Times,serif" font-size="14.00">arch_randomize_brk</text>
</g>
<!-- load_elf_binary&#45;&gt;arch_randomize_brk -->
<g id="edge44" class="edge">
<title>load_elf_binary-&gt;arch_randomize_brk</title>
<path fill="none" stroke="black" d="M596.9,-1136.43C618.4,-1132.92 640.24,-1125.08 655.19,-1109 737.62,-1020.34 607.72,-926.69 691.19,-839 703.47,-826.1 719.74,-818.18 736.97,-813.49"/>
<polygon fill="black" stroke="black" points="737.37,-816.99 746.32,-811.32 735.78,-810.18 737.37,-816.99"/>
</g>
<!-- begin_new_exec -->
<g id="node42" class="node">
<title>begin_new_exec</title>
<ellipse fill="none" stroke="black" cx="838.99" cy="-758" rx="75.92" ry="18"/>
<text text-anchor="middle" x="838.99" y="-753.8" font-family="Times,serif" font-size="14.00">begin_new_exec</text>
</g>
<!-- load_elf_binary&#45;&gt;begin_new_exec -->
<g id="edge45" class="edge">
<title>load_elf_binary-&gt;begin_new_exec</title>
<path fill="none" stroke="black" d="M597.11,-1136.62C618.63,-1133.12 640.42,-1125.24 655.19,-1109 752.67,-1001.82 592.45,-891.03 691.19,-785 707.12,-767.89 730.06,-759.48 753.09,-755.78"/>
<polygon fill="black" stroke="black" points="753.4,-759.26 762.87,-754.51 752.5,-752.32 753.4,-759.26"/>
</g>
<!-- set_brk -->
<g id="node43" class="node">
<title>set_brk</title>
<ellipse fill="none" stroke="black" cx="838.99" cy="-704" rx="39.47" ry="18"/>
<text text-anchor="middle" x="838.99" y="-699.8" font-family="Times,serif" font-size="14.00">set_brk</text>
</g>
<!-- load_elf_binary&#45;&gt;set_brk -->
<g id="edge46" class="edge">
<title>load_elf_binary-&gt;set_brk</title>
<path fill="none" stroke="black" d="M596.92,-1136.81C618.56,-1133.35 640.47,-1125.44 655.19,-1109 711.47,-1046.13 634.17,-793.2 691.19,-731 715.54,-704.43 756.77,-698.76 789.35,-699.13"/>
<polygon fill="black" stroke="black" points="788.85,-702.61 798.96,-699.43 789.07,-695.61 788.85,-702.61"/>
</g>
<!-- kmalloc_trace -->
<g id="node44" class="node">
<title>kmalloc_trace</title>
<ellipse fill="none" stroke="black" cx="838.99" cy="-650" rx="65.73" ry="18"/>
<text text-anchor="middle" x="838.99" y="-645.8" font-family="Times,serif" font-size="14.00">kmalloc_trace</text>
</g>
<!-- load_elf_binary&#45;&gt;kmalloc_trace -->
<g id="edge47" class="edge">
<title>load_elf_binary-&gt;kmalloc_trace</title>
<path fill="none" stroke="black" d="M597.04,-1136.91C618.68,-1133.46 640.56,-1125.53 655.19,-1109 719.02,-1036.85 626.51,-748.4 691.19,-677 709.38,-656.92 737.2,-648.74 763.75,-646.08"/>
<polygon fill="black" stroke="black" points="763.79,-649.59 773.51,-645.38 763.28,-642.61 763.79,-649.59"/>
</g>
<!-- __pi_memcmp -->
<g id="node45" class="node">
<title>__pi_memcmp</title>
<ellipse fill="none" stroke="black" cx="838.99" cy="-596" rx="68.97" ry="18"/>
<text text-anchor="middle" x="838.99" y="-591.8" font-family="Times,serif" font-size="14.00">__pi_memcmp</text>
</g>
<!-- load_elf_binary&#45;&gt;__pi_memcmp -->
<g id="edge48" class="edge">
<title>load_elf_binary-&gt;__pi_memcmp</title>
<path fill="none" stroke="black" d="M597.13,-1136.99C618.77,-1133.54 640.64,-1125.6 655.19,-1109 726.57,-1027.56 618.85,-703.6 691.19,-623 708.6,-603.6 735,-595.27 760.64,-592.32"/>
<polygon fill="black" stroke="black" points="760.77,-595.82 770.43,-591.47 760.16,-588.85 760.77,-595.82"/>
</g>
<!-- parse_elf_properties -->
<g id="node46" class="node">
<title>parse_elf_properties</title>
<ellipse fill="none" stroke="black" cx="838.99" cy="-542" rx="89.87" ry="18"/>
<text text-anchor="middle" x="838.99" y="-537.8" font-family="Times,serif" font-size="14.00">parse_elf_properties</text>
</g>
<!-- load_elf_binary&#45;&gt;parse_elf_properties -->
<g id="edge50" class="edge">
<title>load_elf_binary-&gt;parse_elf_properties</title>
<path fill="none" stroke="black" d="M596.86,-1137.11C618.62,-1133.69 640.63,-1125.74 655.19,-1109 734.13,-1018.27 611.19,-658.8 691.19,-569 703.46,-555.22 720.27,-547.02 738.14,-542.35"/>
<polygon fill="black" stroke="black" points="738.87,-545.78 747.89,-540.22 737.37,-538.94 738.87,-545.78"/>
</g>
<!-- make_prot -->
<g id="node47" class="node">
<title>make_prot</title>
<ellipse fill="none" stroke="black" cx="838.99" cy="-488" rx="52.33" ry="18"/>
<text text-anchor="middle" x="838.99" y="-483.8" font-family="Times,serif" font-size="14.00">make_prot</text>
</g>
<!-- load_elf_binary&#45;&gt;make_prot -->
<g id="edge51" class="edge">
<title>load_elf_binary-&gt;make_prot</title>
<path fill="none" stroke="black" d="M596.92,-1137.16C618.69,-1133.75 640.68,-1125.78 655.19,-1109 741.69,-1008.97 603.52,-614.01 691.19,-515 712.21,-491.26 746.67,-484.05 776.93,-482.98"/>
<polygon fill="black" stroke="black" points="776.81,-486.48 786.77,-482.87 776.73,-479.49 776.81,-486.48"/>
</g>
<!-- vm_brk_flags -->
<g id="node48" class="node">
<title>vm_brk_flags</title>
<ellipse fill="none" stroke="black" cx="838.99" cy="-434" rx="64.68" ry="18"/>
<text text-anchor="middle" x="838.99" y="-429.8" font-family="Times,serif" font-size="14.00">vm_brk_flags</text>
</g>
<!-- load_elf_binary&#45;&gt;vm_brk_flags -->
<g id="edge52" class="edge">
<title>load_elf_binary-&gt;vm_brk_flags</title>
<path fill="none" stroke="black" d="M596.97,-1137.2C618.74,-1133.79 640.72,-1125.82 655.19,-1109 749.25,-999.67 595.85,-569.22 691.19,-461 709.47,-440.24 738.04,-432.1 765.12,-429.66"/>
<polygon fill="black" stroke="black" points="765.34,-433.16 775.1,-429.04 764.9,-426.17 765.34,-433.16"/>
</g>
<!-- open_exec -->
<g id="node49" class="node">
<title>open_exec</title>
<ellipse fill="none" stroke="black" cx="838.99" cy="-380" rx="52.32" ry="18"/>
<text text-anchor="middle" x="838.99" y="-375.8" font-family="Times,serif" font-size="14.00">open_exec</text>
</g>
<!-- load_elf_binary&#45;&gt;open_exec -->
<g id="edge53" class="edge">
<title>load_elf_binary-&gt;open_exec</title>
<path fill="none" stroke="black" d="M597.01,-1137.24C618.78,-1133.83 640.75,-1125.85 655.19,-1109 756.81,-990.37 588.18,-524.43 691.19,-407 712.17,-383.07 746.81,-375.89 777.17,-374.89"/>
<polygon fill="black" stroke="black" points="777.08,-378.39 787.04,-374.8 777.01,-371.39 777.08,-378.39"/>
</g>
<!-- would_dump -->
<g id="node50" class="node">
<title>would_dump</title>
<ellipse fill="none" stroke="black" cx="838.99" cy="-326" rx="62" ry="18"/>
<text text-anchor="middle" x="838.99" y="-321.8" font-family="Times,serif" font-size="14.00">would_dump</text>
</g>
<!-- load_elf_binary&#45;&gt;would_dump -->
<g id="edge54" class="edge">
<title>load_elf_binary-&gt;would_dump</title>
<path fill="none" stroke="black" d="M597.04,-1137.27C618.82,-1133.86 640.79,-1125.87 655.19,-1109 709.78,-1045.03 635.85,-416.32 691.19,-353 710,-331.48 739.85,-323.49 767.74,-321.37"/>
<polygon fill="black" stroke="black" points="767.8,-324.87 777.61,-320.88 767.45,-317.88 767.8,-324.87"/>
</g>
<!-- elf_map -->
<g id="node51" class="node">
<title>elf_map</title>
<ellipse fill="none" stroke="black" cx="838.99" cy="-272" rx="42.68" ry="18"/>
<text text-anchor="middle" x="838.99" y="-267.8" font-family="Times,serif" font-size="14.00">elf_map</text>
</g>
<!-- load_elf_binary&#45;&gt;elf_map -->
<g id="edge55" class="edge">
<title>load_elf_binary-&gt;elf_map</title>
<path fill="none" stroke="black" d="M596.74,-1137.35C618.63,-1133.97 640.74,-1125.98 655.19,-1109 713.56,-1040.38 632.01,-366.93 691.19,-299 714.26,-272.52 754.04,-266.51 786.38,-266.72"/>
<polygon fill="black" stroke="black" points="785.86,-270.2 795.95,-266.98 786.06,-263.21 785.86,-270.2"/>
</g>
<!-- padzero -->
<g id="node52" class="node">
<title>padzero</title>
<ellipse fill="none" stroke="black" cx="838.99" cy="-218" rx="41.6" ry="18"/>
<text text-anchor="middle" x="838.99" y="-213.8" font-family="Times,serif" font-size="14.00">padzero</text>
</g>
<!-- load_elf_binary&#45;&gt;padzero -->
<g id="edge56" class="edge">
<title>load_elf_binary-&gt;padzero</title>
<path fill="none" stroke="black" d="M596.76,-1137.37C618.66,-1134 640.76,-1126 655.19,-1109 717.34,-1035.73 628.17,-317.53 691.19,-245 714.45,-218.23 754.8,-212.36 787.31,-212.7"/>
<polygon fill="black" stroke="black" points="786.83,-216.19 796.93,-213.01 787.05,-209.19 786.83,-216.19"/>
</g>
<!-- vm_mmap -->
<g id="node53" class="node">
<title>vm_mmap</title>
<ellipse fill="none" stroke="black" cx="838.99" cy="-164" rx="52.34" ry="18"/>
<text text-anchor="middle" x="838.99" y="-159.8" font-family="Times,serif" font-size="14.00">vm_mmap</text>
</g>
<!-- load_elf_binary&#45;&gt;vm_mmap -->
<g id="edge57" class="edge">
<title>load_elf_binary-&gt;vm_mmap</title>
<path fill="none" stroke="black" d="M596.79,-1137.39C618.68,-1134.02 640.78,-1126.02 655.19,-1109 721.13,-1031.08 624.33,-268.14 691.19,-191 712.03,-166.95 746.66,-159.76 777.05,-158.79"/>
<polygon fill="black" stroke="black" points="776.97,-162.29 786.94,-158.71 776.91,-155.29 776.97,-162.29"/>
</g>
<!-- setup_arg_pages -->
<g id="node54" class="node">
<title>setup_arg_pages</title>
<ellipse fill="none" stroke="black" cx="838.99" cy="-110" rx="75.4" ry="18"/>
<text text-anchor="middle" x="838.99" y="-105.8" font-family="Times,serif" font-size="14.00">setup_arg_pages</text>
</g>
<!-- load_elf_binary&#45;&gt;setup_arg_pages -->
<g id="edge58" class="edge">
<title>load_elf_binary-&gt;setup_arg_pages</title>
<path fill="none" stroke="black" d="M596.81,-1137.41C618.71,-1134.04 640.8,-1126.04 655.19,-1109 724.91,-1026.43 620.5,-218.75 691.19,-137 706.92,-118.81 730.53,-110.26 754.25,-106.75"/>
<polygon fill="black" stroke="black" points="754.47,-110.25 764,-105.62 753.66,-103.3 754.47,-110.25"/>
</g>
<!-- down_write_killable -->
<g id="node55" class="node">
<title>down_write_killable</title>
<ellipse fill="none" stroke="black" cx="838.99" cy="-2022" rx="90.96" ry="18"/>
<text text-anchor="middle" x="838.99" y="-2017.8" font-family="Times,serif" font-size="14.00">down_write_killable</text>
</g>
<!-- load_elf_binary&#45;&gt;down_write_killable -->
<g id="edge59" class="edge">
<title>load_elf_binary-&gt;down_write_killable</title>
<path fill="none" stroke="black" d="M531.43,-1154.31C551.97,-1219.07 621.13,-1443.6 655.19,-1634 669.38,-1713.36 636.58,-1935.69 691.19,-1995 703.32,-2008.18 719.62,-2016.21 736.93,-2020.91"/>
<polygon fill="black" stroke="black" points="735.81,-2024.25 746.34,-2023.09 737.39,-2017.43 735.81,-2024.25"/>
</g>
<!-- spectre_v4_enable_task_mitigation -->
<g id="node56" class="node">
<title>spectre_v4_enable_task_mitigation</title>
<ellipse fill="none" stroke="black" cx="838.99" cy="-1968" rx="147.8" ry="18"/>
<text text-anchor="middle" x="838.99" y="-1963.8" font-family="Times,serif" font-size="14.00">spectre_v4_enable_task_mitigation</text>
</g>
<!-- load_elf_binary&#45;&gt;spectre_v4_enable_task_mitigation -->
<g id="edge60" class="edge">
<title>load_elf_binary-&gt;spectre_v4_enable_task_mitigation</title>
<path fill="none" stroke="black" d="M531.32,-1154.33C551.46,-1219.16 619.48,-1443.91 655.19,-1634 667.87,-1701.51 644.22,-1890.87 691.19,-1941 695.23,-1945.32 699.73,-1949.09 704.56,-1952.36"/>
<polygon fill="black" stroke="black" points="702.54,-1955.23 712.93,-1957.3 706.1,-1949.2 702.54,-1955.23"/>
</g>
<!-- __clear_user -->
<g id="node57" class="node">
<title>__clear_user</title>
<ellipse fill="none" stroke="black" cx="838.99" cy="-1914" rx="60.37" ry="18"/>
<text text-anchor="middle" x="838.99" y="-1909.8" font-family="Times,serif" font-size="14.00">__clear_user</text>
</g>
<!-- load_elf_binary&#45;&gt;__clear_user -->
<g id="edge61" class="edge">
<title>load_elf_binary-&gt;__clear_user</title>
<path fill="none" stroke="black" d="M531.15,-1154.37C550.74,-1219.3 617.14,-1444.36 655.19,-1634 666.36,-1689.68 651.85,-1846.04 691.19,-1887 710.98,-1907.62 740.98,-1915.48 768.7,-1917.75"/>
<polygon fill="black" stroke="black" points="768.31,-1921.24 778.49,-1918.31 768.7,-1914.25 768.31,-1921.24"/>
</g>
<!-- access_ok_31 -->
<g id="node58" class="node">
<title>access_ok_31</title>
<ellipse fill="none" stroke="black" cx="838.99" cy="-1860" rx="64.67" ry="18"/>
<text text-anchor="middle" x="838.99" y="-1855.8" font-family="Times,serif" font-size="14.00">access_ok_31</text>
</g>
<!-- load_elf_binary&#45;&gt;access_ok_31 -->
<g id="edge62" class="edge">
<title>load_elf_binary-&gt;access_ok_31</title>
<path fill="none" stroke="black" d="M530.89,-1154.42C549.64,-1219.53 613.58,-1445.11 655.19,-1634 674.52,-1721.78 627.72,-1769.35 691.19,-1833 710.24,-1852.11 738.08,-1860.14 764.41,-1862.94"/>
<polygon fill="black" stroke="black" points="763.81,-1866.41 774.06,-1863.72 764.37,-1859.43 763.81,-1866.41"/>
</g>
<!-- find_extend_vma_locked -->
<g id="node59" class="node">
<title>find_extend_vma_locked</title>
<ellipse fill="none" stroke="black" cx="838.99" cy="-1806" rx="109.19" ry="18"/>
<text text-anchor="middle" x="838.99" y="-1801.8" font-family="Times,serif" font-size="14.00">find_extend_vma_locked</text>
</g>
<!-- load_elf_binary&#45;&gt;find_extend_vma_locked -->
<g id="edge63" class="edge">
<title>load_elf_binary-&gt;find_extend_vma_locked</title>
<path fill="none" stroke="black" d="M530.34,-1154.07C547.49,-1218.93 607.41,-1446.11 655.19,-1634 671.55,-1698.35 642.81,-1733.51 691.19,-1779 700.08,-1787.36 710.66,-1793.56 722.02,-1798.1"/>
<polygon fill="black" stroke="black" points="720.62,-1801.32 731.21,-1801.33 722.93,-1794.72 720.62,-1801.32"/>
</g>
<!-- set_binfmt -->
<g id="node60" class="node">
<title>set_binfmt</title>
<ellipse fill="none" stroke="black" cx="838.99" cy="-1752" rx="52.34" ry="18"/>
<text text-anchor="middle" x="838.99" y="-1747.8" font-family="Times,serif" font-size="14.00">set_binfmt</text>
</g>
<!-- load_elf_binary&#45;&gt;set_binfmt -->
<g id="edge64" class="edge">
<title>load_elf_binary-&gt;set_binfmt</title>
<path fill="none" stroke="black" d="M530.11,-1154.22C554.42,-1251.35 668.77,-1704.56 691.19,-1725 713.84,-1745.65 746.9,-1752.99 775.92,-1754.9"/>
<polygon fill="black" stroke="black" points="775.57,-1758.38 785.72,-1755.32 775.88,-1751.39 775.57,-1758.38"/>
</g>
<!-- arch_mmap_rnd -->
<g id="node61" class="node">
<title>arch_mmap_rnd</title>
<ellipse fill="none" stroke="black" cx="838.99" cy="-1698" rx="74.32" ry="18"/>
<text text-anchor="middle" x="838.99" y="-1693.8" font-family="Times,serif" font-size="14.00">arch_mmap_rnd</text>
</g>
<!-- load_elf_binary&#45;&gt;arch_mmap_rnd -->
<g id="edge66" class="edge">
<title>load_elf_binary-&gt;arch_mmap_rnd</title>
<path fill="none" stroke="black" d="M525,-1154.48C523.78,-1231.27 529.98,-1527.82 691.19,-1671 708.26,-1686.16 730.97,-1694.09 753.42,-1697.96"/>
<polygon fill="black" stroke="black" points="752.85,-1701.41 763.24,-1699.37 753.85,-1694.48 752.85,-1701.41"/>
</g>
<!-- get_random_bytes -->
<g id="node62" class="node">
<title>get_random_bytes</title>
<ellipse fill="none" stroke="black" cx="838.99" cy="-1644" rx="82.37" ry="18"/>
<text text-anchor="middle" x="838.99" y="-1639.8" font-family="Times,serif" font-size="14.00">get_random_bytes</text>
</g>
<!-- load_elf_binary&#45;&gt;get_random_bytes -->
<g id="edge67" class="edge">
<title>load_elf_binary-&gt;get_random_bytes</title>
<path fill="none" stroke="black" d="M525.73,-1154.34C527.44,-1226.13 543.9,-1490.27 691.19,-1617 706.28,-1629.99 725.54,-1637.61 745.11,-1641.92"/>
<polygon fill="black" stroke="black" points="744.34,-1645.34 754.82,-1643.76 745.64,-1638.46 744.34,-1645.34"/>
</g>
<!-- arch_setup_additional_pages -->
<g id="node63" class="node">
<title>arch_setup_additional_pages</title>
<ellipse fill="none" stroke="black" cx="838.99" cy="-1590" rx="123.13" ry="18"/>
<text text-anchor="middle" x="838.99" y="-1585.8" font-family="Times,serif" font-size="14.00">arch_setup_additional_pages</text>
</g>
<!-- load_elf_binary&#45;&gt;arch_setup_additional_pages -->
<g id="edge68" class="edge">
<title>load_elf_binary-&gt;arch_setup_additional_pages</title>
<path fill="none" stroke="black" d="M526.83,-1154.23C532.44,-1219.99 560.89,-1446.98 691.19,-1558 700.46,-1565.9 711.23,-1571.98 722.66,-1576.65"/>
<polygon fill="black" stroke="black" points="721.29,-1579.88 731.88,-1580.03 723.69,-1573.3 721.29,-1579.88"/>
</g>
<!-- bprm_execve -->
<g id="node3" class="node">
<title>bprm_execve</title>
<ellipse fill="none" stroke="black" cx="294.88" cy="-623" rx="63.05" ry="18"/>
<text text-anchor="middle" x="294.88" y="-618.8" font-family="Times,serif" font-size="14.00">bprm_execve</text>
</g>
<!-- bprm_execve&#45;&gt;load_elf_binary -->
<g id="edge8" class="edge">
<title>bprm_execve-&gt;load_elf_binary</title>
<path fill="none" stroke="red" d="M296.96,-641.48C302.04,-721.96 326.21,-1040.85 393.93,-1109 406.61,-1121.76 423.66,-1129.24 441.21,-1133.48"/>
<polygon fill="red" stroke="red" points="440.19,-1136.84 450.68,-1135.42 441.59,-1129.99 440.19,-1136.84"/>
</g>
<!-- __raw_read_lock -->
<g id="node5" class="node">
<title>__raw_read_lock</title>
<ellipse fill="none" stroke="black" cx="524.56" cy="-1082" rx="78.07" ry="18"/>
<text text-anchor="middle" x="524.56" y="-1077.8" font-family="Times,serif" font-size="14.00">__raw_read_lock</text>
</g>
<!-- bprm_execve&#45;&gt;__raw_read_lock -->
<g id="edge2" class="edge">
<title>bprm_execve-&gt;__raw_read_lock</title>
<path fill="none" stroke="black" d="M297.46,-641.42C304.22,-716.14 333.24,-995.38 393.93,-1055 405.33,-1066.19 420.08,-1073.3 435.53,-1077.71"/>
<polygon fill="black" stroke="black" points="434.3,-1081.01 444.84,-1079.99 435.96,-1074.21 434.3,-1081.01"/>
</g>
<!-- force_fatal_sig -->
<g id="node6" class="node">
<title>force_fatal_sig</title>
<ellipse fill="none" stroke="black" cx="524.56" cy="-1028" rx="68.95" ry="18"/>
<text text-anchor="middle" x="524.56" y="-1023.8" font-family="Times,serif" font-size="14.00">force_fatal_sig</text>
</g>
<!-- bprm_execve&#45;&gt;force_fatal_sig -->
<g id="edge3" class="edge">
<title>bprm_execve-&gt;force_fatal_sig</title>
<path fill="none" stroke="black" d="M298.07,-641.2C306.64,-709.57 340.18,-949.79 393.93,-1001 407.57,-1013.99 425.77,-1021.44 444.2,-1025.55"/>
<polygon fill="black" stroke="black" points="443.39,-1028.96 453.87,-1027.37 444.69,-1022.08 443.39,-1028.96"/>
</g>
<!-- ptrace_notify -->
<g id="node7" class="node">
<title>ptrace_notify</title>
<ellipse fill="none" stroke="black" cx="524.56" cy="-974" rx="62.52" ry="18"/>
<text text-anchor="middle" x="524.56" y="-969.8" font-family="Times,serif" font-size="14.00">ptrace_notify</text>
</g>
<!-- bprm_execve&#45;&gt;ptrace_notify -->
<g id="edge4" class="edge">
<title>bprm_execve-&gt;ptrace_notify</title>
<path fill="none" stroke="black" d="M295.43,-641.36C295.13,-696.68 302.24,-863.08 393.93,-947 409.32,-961.08 430.07,-968.57 450.46,-972.37"/>
<polygon fill="black" stroke="black" points="449.8,-975.81 460.22,-973.89 450.87,-968.9 449.8,-975.81"/>
</g>
<!-- __raw_read_unlock -->
<g id="node8" class="node">
<title>__raw_read_unlock</title>
<ellipse fill="none" stroke="black" cx="524.56" cy="-920" rx="87.73" ry="18"/>
<text text-anchor="middle" x="524.56" y="-915.8" font-family="Times,serif" font-size="14.00">__raw_read_unlock</text>
</g>
<!-- bprm_execve&#45;&gt;__raw_read_unlock -->
<g id="edge5" class="edge">
<title>bprm_execve-&gt;__raw_read_unlock</title>
<path fill="none" stroke="black" d="M296.71,-641.46C299.96,-690.59 315.91,-825.41 393.93,-893 403.91,-901.64 415.93,-907.77 428.58,-912.07"/>
<polygon fill="black" stroke="black" points="427.29,-915.33 437.87,-914.83 429.29,-908.63 427.29,-915.33"/>
</g>
<!-- __task_pid_nr_ns -->
<g id="node9" class="node">
<title>__task_pid_nr_ns</title>
<ellipse fill="none" stroke="black" cx="524.56" cy="-866" rx="79.71" ry="18"/>
<text text-anchor="middle" x="524.56" y="-861.8" font-family="Times,serif" font-size="14.00">__task_pid_nr_ns</text>
</g>
<!-- bprm_execve&#45;&gt;__task_pid_nr_ns -->
<g id="edge6" class="edge">
<title>bprm_execve-&gt;__task_pid_nr_ns</title>
<path fill="none" stroke="black" d="M298.57,-641.46C305.72,-683.62 329.31,-787.27 393.93,-839 405.92,-848.59 420.48,-855.02 435.44,-859.28"/>
<polygon fill="black" stroke="black" points="434.37,-862.62 444.92,-861.64 436.06,-855.82 434.37,-862.62"/>
</g>
<!-- bprm_execve&#45;&gt;memset -->
<g id="edge7" class="edge">
<title>bprm_execve-&gt;memset</title>
<path fill="none" stroke="black" d="M298.31,-641.37C307.61,-710.47 343.09,-961.11 393.93,-1163 498.46,-1578.05 376.71,-1788.66 691.19,-2079 716.73,-2102.59 755.24,-2111.12 786.41,-2113.88"/>
<polygon fill="black" stroke="black" points="785.79,-2117.34 796.01,-2114.54 786.28,-2110.36 785.79,-2117.34"/>
</g>
<!-- __raw_spin_lock_18 -->
<g id="node11" class="node">
<title>__raw_spin_lock_18</title>
<ellipse fill="none" stroke="black" cx="524.56" cy="-812" rx="92.04" ry="18"/>
<text text-anchor="middle" x="524.56" y="-807.8" font-family="Times,serif" font-size="14.00">__raw_spin_lock_18</text>
</g>
<!-- bprm_execve&#45;&gt;__raw_spin_lock_18 -->
<g id="edge9" class="edge">
<title>bprm_execve-&gt;__raw_spin_lock_18</title>
<path fill="none" stroke="black" d="M301.45,-641.21C312.87,-675.26 342.28,-748.44 393.93,-785 404.31,-792.34 416.25,-797.78 428.6,-801.78"/>
<polygon fill="black" stroke="black" points="427.49,-805.1 438.07,-804.52 429.44,-798.38 427.49,-805.1"/>
</g>
<!-- sched_exec -->
<g id="node12" class="node">
<title>sched_exec</title>
<ellipse fill="none" stroke="black" cx="524.56" cy="-758" rx="55.54" ry="18"/>
<text text-anchor="middle" x="524.56" y="-753.8" font-family="Times,serif" font-size="14.00">sched_exec</text>
</g>
<!-- bprm_execve&#45;&gt;sched_exec -->
<g id="edge10" class="edge">
<title>bprm_execve-&gt;sched_exec</title>
<path fill="none" stroke="black" d="M307.02,-641.15C323.05,-665.64 355.02,-708.75 393.93,-731 413.48,-742.18 437.04,-748.75 458.68,-752.61"/>
<polygon fill="black" stroke="black" points="457.87,-756.03 468.3,-754.15 458.98,-749.12 457.87,-756.03"/>
</g>
<!-- mutex_lock_interruptible -->
<g id="node13" class="node">
<title>mutex_lock_interruptible</title>
<ellipse fill="none" stroke="black" cx="524.56" cy="-704" rx="109.19" ry="18"/>
<text text-anchor="middle" x="524.56" y="-699.8" font-family="Times,serif" font-size="14.00">mutex_lock_interruptible</text>
</g>
<!-- bprm_execve&#45;&gt;mutex_lock_interruptible -->
<g id="edge11" class="edge">
<title>bprm_execve-&gt;mutex_lock_interruptible</title>
<path fill="none" stroke="black" d="M321.1,-639.64C340.33,-651.64 367.87,-667.36 393.93,-677 406.4,-681.61 419.84,-685.52 433.19,-688.8"/>
<polygon fill="black" stroke="black" points="432.35,-692.2 442.88,-691.07 433.94,-685.38 432.35,-692.2"/>
</g>
<!-- mutex_unlock -->
<g id="node14" class="node">
<title>mutex_unlock</title>
<ellipse fill="none" stroke="black" cx="524.56" cy="-650" rx="66.29" ry="18"/>
<text text-anchor="middle" x="524.56" y="-645.8" font-family="Times,serif" font-size="14.00">mutex_unlock</text>
</g>
<!-- bprm_execve&#45;&gt;mutex_unlock -->
<g id="edge12" class="edge">
<title>bprm_execve-&gt;mutex_unlock</title>
<path fill="none" stroke="black" d="M353.63,-629.85C383.43,-633.38 420.07,-637.73 451.69,-641.48"/>
<polygon fill="black" stroke="black" points="451.24,-644.95 461.59,-642.65 452.07,-638 451.24,-644.95"/>
</g>
<!-- allow_write_access_1 -->
<g id="node15" class="node">
<title>allow_write_access_1</title>
<ellipse fill="none" stroke="black" cx="524.56" cy="-596" rx="96.31" ry="18"/>
<text text-anchor="middle" x="524.56" y="-591.8" font-family="Times,serif" font-size="14.00">allow_write_access_1</text>
</g>
<!-- bprm_execve&#45;&gt;allow_write_access_1 -->
<g id="edge13" class="edge">
<title>bprm_execve-&gt;allow_write_access_1</title>
<path fill="none" stroke="black" d="M353.63,-616.15C377.15,-613.36 404.92,-610.07 431.12,-606.96"/>
<polygon fill="black" stroke="black" points="431.22,-610.48 440.74,-605.82 430.39,-603.52 431.22,-610.48"/>
</g>
<!-- Indirect -->
<g id="node16" class="node">
<title>Indirect</title>
<ellipse fill="none" stroke="black" cx="524.56" cy="-542" rx="41.06" ry="18"/>
<text text-anchor="middle" x="524.56" y="-537.8" font-family="Times,serif" font-size="14.00">Indirect</text>
</g>
<!-- bprm_execve&#45;&gt;Indirect -->
<g id="edge14" class="edge">
<title>bprm_execve-&gt;Indirect</title>
<path fill="none" stroke="black" d="M321.1,-606.36C340.33,-594.36 367.87,-578.64 393.93,-569 419.43,-559.57 449.04,-553.09 473.51,-548.84"/>
<polygon fill="black" stroke="black" points="473.93,-552.32 483.22,-547.24 472.79,-545.42 473.93,-552.32"/>
</g>
<!-- __audit_bprm -->
<g id="node17" class="node">
<title>__audit_bprm</title>
<ellipse fill="none" stroke="black" cx="524.56" cy="-488" rx="65.22" ry="18"/>
<text text-anchor="middle" x="524.56" y="-483.8" font-family="Times,serif" font-size="14.00">__audit_bprm</text>
</g>
<!-- bprm_execve&#45;&gt;__audit_bprm -->
<g id="edge15" class="edge">
<title>bprm_execve-&gt;__audit_bprm</title>
<path fill="none" stroke="black" d="M307.02,-604.85C323.05,-580.36 355.02,-537.25 393.93,-515 410.95,-505.27 431.01,-499.03 450.2,-495.03"/>
<polygon fill="black" stroke="black" points="450.7,-498.49 459.88,-493.2 449.41,-491.61 450.7,-498.49"/>
</g>
<!-- prepare_exec_creds -->
<g id="node18" class="node">
<title>prepare_exec_creds</title>
<ellipse fill="none" stroke="black" cx="524.56" cy="-434" rx="87.7" ry="18"/>
<text text-anchor="middle" x="524.56" y="-429.8" font-family="Times,serif" font-size="14.00">prepare_exec_creds</text>
</g>
<!-- bprm_execve&#45;&gt;prepare_exec_creds -->
<g id="edge16" class="edge">
<title>bprm_execve-&gt;prepare_exec_creds</title>
<path fill="none" stroke="black" d="M301.45,-604.79C312.87,-570.74 342.28,-497.56 393.93,-461 405.11,-453.09 418.11,-447.4 431.47,-443.32"/>
<polygon fill="black" stroke="black" points="432.05,-446.79 440.78,-440.78 430.21,-440.04 432.05,-446.79"/>
</g>
<!-- security_bprm_check -->
<g id="node19" class="node">
<title>security_bprm_check</title>
<ellipse fill="none" stroke="black" cx="524.56" cy="-380" rx="94.16" ry="18"/>
<text text-anchor="middle" x="524.56" y="-375.8" font-family="Times,serif" font-size="14.00">security_bprm_check</text>
</g>
<!-- bprm_execve&#45;&gt;security_bprm_check -->
<g id="edge17" class="edge">
<title>bprm_execve-&gt;security_bprm_check</title>
<path fill="none" stroke="black" d="M298.57,-604.54C305.72,-562.38 329.31,-458.73 393.93,-407 403.28,-399.52 414.18,-393.97 425.63,-389.87"/>
<polygon fill="black" stroke="black" points="426.34,-393.31 434.81,-386.95 424.22,-386.64 426.34,-393.31"/>
</g>
<!-- fatal_signal_pending_7 -->
<g id="node20" class="node">
<title>fatal_signal_pending_7</title>
<ellipse fill="none" stroke="black" cx="524.56" cy="-326" rx="101.68" ry="18"/>
<text text-anchor="middle" x="524.56" y="-321.8" font-family="Times,serif" font-size="14.00">fatal_signal_pending_7</text>
</g>
<!-- bprm_execve&#45;&gt;fatal_signal_pending_7 -->
<g id="edge18" class="edge">
<title>bprm_execve-&gt;fatal_signal_pending_7</title>
<path fill="none" stroke="black" d="M296.71,-604.54C299.96,-555.41 315.91,-420.59 393.93,-353 401.65,-346.31 410.6,-341.13 420.11,-337.14"/>
<polygon fill="black" stroke="black" points="421.03,-340.53 429.2,-333.78 418.61,-333.96 421.03,-340.53"/>
</g>
<!-- bprm_execve&#45;&gt;fput -->
<g id="edge19" class="edge">
<title>bprm_execve-&gt;fput</title>
<path fill="none" stroke="black" d="M295.21,-604.78C294.23,-549.14 299.5,-380.28 393.93,-299 482.86,-222.46 569.96,-341.65 655.19,-261 713.81,-205.52 633.61,-139.57 691.19,-83 719.88,-54.81 767.74,-50.88 800.98,-52.15"/>
<polygon fill="black" stroke="black" points="800.38,-55.62 810.56,-52.7 800.78,-48.63 800.38,-55.62"/>
</g>
<!-- security_bprm_creds_for_exec -->
<g id="node22" class="node">
<title>security_bprm_creds_for_exec</title>
<ellipse fill="none" stroke="black" cx="524.56" cy="-234" rx="130.63" ry="18"/>
<text text-anchor="middle" x="524.56" y="-229.8" font-family="Times,serif" font-size="14.00">security_bprm_creds_for_exec</text>
</g>
<!-- bprm_execve&#45;&gt;security_bprm_creds_for_exec -->
<g id="edge20" class="edge">
<title>bprm_execve-&gt;security_bprm_creds_for_exec</title>
<path fill="none" stroke="black" d="M298.41,-604.97C307.93,-539.4 343.75,-314.89 393.93,-266 400.24,-259.86 407.52,-254.83 415.36,-250.73"/>
<polygon fill="black" stroke="black" points="416.57,-254.03 424.18,-246.65 413.63,-247.68 416.57,-254.03"/>
</g>
<!-- do_open_execat -->
<g id="node23" class="node">
<title>do_open_execat</title>
<ellipse fill="none" stroke="black" cx="524.56" cy="-180" rx="73.78" ry="18"/>
<text text-anchor="middle" x="524.56" y="-175.8" font-family="Times,serif" font-size="14.00">do_open_execat</text>
</g>
<!-- bprm_execve&#45;&gt;do_open_execat -->
<g id="edge21" class="edge">
<title>bprm_execve-&gt;do_open_execat</title>
<path fill="none" stroke="black" d="M297.59,-605.01C304.8,-532.67 335.2,-264.22 393.93,-207 406.29,-194.96 422.55,-187.66 439.35,-183.35"/>
<polygon fill="black" stroke="black" points="439.93,-186.81 448.96,-181.26 438.44,-179.97 439.93,-186.81"/>
</g>
<!-- send_sig -->
<g id="node24" class="node">
<title>send_sig</title>
<ellipse fill="none" stroke="black" cx="524.56" cy="-126" rx="44.84" ry="18"/>
<text text-anchor="middle" x="524.56" y="-121.8" font-family="Times,serif" font-size="14.00">send_sig</text>
</g>
<!-- bprm_execve&#45;&gt;send_sig -->
<g id="edge22" class="edge">
<title>bprm_execve-&gt;send_sig</title>
<path fill="none" stroke="black" d="M297.09,-604.6C302.64,-525.89 328.28,-218.63 393.93,-153 413.26,-133.68 442.6,-126.48 468.48,-124.31"/>
<polygon fill="black" stroke="black" points="468.41,-127.82 478.19,-123.74 468,-120.83 468.41,-127.82"/>
</g>
<!-- bprm_execve&#45;&gt;kernel_read -->
<g id="edge23" class="edge">
<title>bprm_execve-&gt;kernel_read</title>
<path fill="none" stroke="black" d="M296.68,-641.2C301.99,-759.27 333.95,-1418.01 393.93,-1609 475.09,-1867.4 457.58,-2003.93 691.19,-2141 804.5,-2207.49 862.78,-2184.37 986.79,-2141 1013.68,-2131.6 1038.58,-2110.63 1055.6,-2093.56"/>
<polygon fill="black" stroke="black" points="1057.84,-2096.29 1062.26,-2086.66 1052.8,-2091.43 1057.84,-2096.29"/>
</g>
<!-- get_close_on_exec -->
<g id="node26" class="node">
<title>get_close_on_exec</title>
<ellipse fill="none" stroke="black" cx="524.56" cy="-72" rx="84.51" ry="18"/>
<text text-anchor="middle" x="524.56" y="-67.8" font-family="Times,serif" font-size="14.00">get_close_on_exec</text>
</g>
<!-- bprm_execve&#45;&gt;get_close_on_exec -->
<g id="edge24" class="edge">
<title>bprm_execve-&gt;get_close_on_exec</title>
<path fill="none" stroke="black" d="M296.67,-604.52C300.64,-520.24 321.23,-173.2 393.93,-99 403.77,-88.96 416.31,-82.17 429.69,-77.66"/>
<polygon fill="black" stroke="black" points="430.48,-81.08 439.11,-74.94 428.53,-74.35 430.48,-81.08"/>
</g>
<!-- task_active_pid_ns -->
<g id="node27" class="node">
<title>task_active_pid_ns</title>
<ellipse fill="none" stroke="black" cx="524.56" cy="-18" rx="85.06" ry="18"/>
<text text-anchor="middle" x="524.56" y="-13.8" font-family="Times,serif" font-size="14.00">task_active_pid_ns</text>
</g>
<!-- bprm_execve&#45;&gt;task_active_pid_ns -->
<g id="edge25" class="edge">
<title>bprm_execve-&gt;task_active_pid_ns</title>
<path fill="none" stroke="black" d="M296.31,-604.76C298.78,-515.74 314.05,-127.92 393.93,-45 403.62,-34.94 416.02,-28.14 429.28,-23.61"/>
<polygon fill="black" stroke="black" points="430.01,-27.04 438.62,-20.87 428.04,-20.32 430.01,-27.04"/>
</g>
<!-- do_execveat_common -->
<g id="node4" class="node">
<title>do_execveat_common</title>
<ellipse fill="none" stroke="black" cx="97.92" cy="-623" rx="97.92" ry="18"/>
<text text-anchor="middle" x="97.92" y="-618.8" font-family="Times,serif" font-size="14.00">do_execveat_common</text>
</g>
<!-- do_execveat_common&#45;&gt;bprm_execve -->
<g id="edge1" class="edge">
<title>do_execveat_common-&gt;bprm_execve</title>
<path fill="none" stroke="black" d="M196.11,-623C204.19,-623 212.27,-623 220.12,-623"/>
<polygon fill="black" stroke="black" points="219.94,-626.5 229.94,-623 219.94,-619.5 219.94,-626.5"/>
</g>
</g>
</svg>