<?xml version="1.0" encoding="UTF-8" standalone="no"?>
<!DOCTYPE svg PUBLIC "-//W3C//DTD SVG 1.1//EN"
 "http://www.w3.org/Graphics/SVG/1.1/DTD/svg11.dtd">
<!-- Generated by graphviz version 2.43.0 (0)
 -->
<!-- Title: followpath Pages: 1 -->
<svg width="3783pt" height="996pt"
 viewBox="0.00 0.00 3782.91 996.00" xmlns="http://www.w3.org/2000/svg" xmlns:xlink="http://www.w3.org/1999/xlink">
<g id="graph0" class="graph" transform="scale(1 1) rotate(0) translate(4 992)">
<title>followpath</title>
<polygon fill="white" stroke="transparent" points="-4,4 -4,-992 3778.91,-992 3778.91,4 -4,4"/>
<!-- get_arm64_ftr_reg -->
<g id="node1" class="node">
<title>get_arm64_ftr_reg</title>
<ellipse fill="none" stroke="magenta" cx="2360.27" cy="-780" rx="96.68" ry="18"/>
<text text-anchor="middle" x="2360.27" y="-776.3" font-family="Times,serif" font-size="14.00">get_arm64_ftr_reg</text>
</g>
<!-- get_arm64_ftr_reg_nowarn -->
<g id="node38" class="node">
<title>get_arm64_ftr_reg_nowarn</title>
<ellipse fill="none" stroke="magenta" cx="2710.84" cy="-780" rx="135.68" ry="18"/>
<text text-anchor="middle" x="2710.84" y="-776.3" font-family="Times,serif" font-size="14.00">get_arm64_ftr_reg_nowarn</text>
</g>
<!-- get_arm64_ftr_reg&#45;&gt;get_arm64_ftr_reg_nowarn -->
<g id="edge5" class="edge">
<title>get_arm64_ftr_reg&#45;&gt;get_arm64_ftr_reg_nowarn</title>
<path fill="none" stroke="magenta" d="M2457.44,-780C2490.6,-780 2528.51,-780 2564.69,-780"/>
<polygon fill="magenta" stroke="magenta" points="2564.85,-783.5 2574.85,-780 2564.85,-776.5 2564.85,-783.5"/>
</g>
<!-- do_translation_fault -->
<g id="node2" class="node">
<title>do_translation_fault</title>
<ellipse fill="none" stroke="magenta" cx="407.37" cy="-587" rx="102.88" ry="18"/>
<text text-anchor="middle" x="407.37" y="-583.3" font-family="Times,serif" font-size="14.00">do_translation_fault</text>
</g>
<!-- do_page_fault -->
<g id="node11" class="node">
<title>do_page_fault</title>
<ellipse fill="none" stroke="magenta" cx="620.8" cy="-587" rx="74.99" ry="18"/>
<text text-anchor="middle" x="620.8" y="-583.3" font-family="Times,serif" font-size="14.00">do_page_fault</text>
</g>
<!-- do_translation_fault&#45;&gt;do_page_fault -->
<g id="edge58" class="edge">
<title>do_translation_fault&#45;&gt;do_page_fault</title>
<path fill="none" stroke="magenta" d="M510.06,-587C518.64,-587 527.25,-587 535.66,-587"/>
<polygon fill="magenta" stroke="magenta" points="535.82,-590.5 545.82,-587 535.82,-583.5 535.82,-590.5"/>
</g>
<!-- folio_add_lru -->
<g id="node3" class="node">
<title>folio_add_lru</title>
<ellipse fill="none" stroke="magenta" cx="1717.62" cy="-18" rx="69.59" ry="18"/>
<text text-anchor="middle" x="1717.62" y="-14.3" font-family="Times,serif" font-size="14.00">folio_add_lru</text>
</g>
<!-- folio_batch_add_and_move -->
<g id="node28" class="node">
<title>folio_batch_add_and_move</title>
<ellipse fill="none" stroke="magenta" cx="2039.59" cy="-18" rx="133.48" ry="18"/>
<text text-anchor="middle" x="2039.59" y="-14.3" font-family="Times,serif" font-size="14.00">folio_batch_add_and_move</text>
</g>
<!-- folio_add_lru&#45;&gt;folio_batch_add_and_move -->
<g id="edge48" class="edge">
<title>folio_add_lru&#45;&gt;folio_batch_add_and_move</title>
<path fill="none" stroke="magenta" d="M1787.26,-18C1819.12,-18 1858.25,-18 1896.06,-18"/>
<polygon fill="magenta" stroke="magenta" points="1896.16,-21.5 1906.16,-18 1896.16,-14.5 1896.16,-21.5"/>
</g>
<!-- handle_mm_fault -->
<g id="node4" class="node">
<title>handle_mm_fault</title>
<ellipse fill="none" stroke="magenta" cx="836.19" cy="-641" rx="89.88" ry="18"/>
<text text-anchor="middle" x="836.19" y="-637.3" font-family="Times,serif" font-size="14.00">handle_mm_fault</text>
</g>
<!-- __handle_mm_fault -->
<g id="node10" class="node">
<title>__handle_mm_fault</title>
<ellipse fill="none" stroke="magenta" cx="1075.62" cy="-641" rx="98.58" ry="18"/>
<text text-anchor="middle" x="1075.62" y="-637.3" font-family="Times,serif" font-size="14.00">__handle_mm_fault</text>
</g>
<!-- handle_mm_fault&#45;&gt;__handle_mm_fault -->
<g id="edge49" class="edge">
<title>handle_mm_fault&#45;&gt;__handle_mm_fault</title>
<path fill="none" stroke="magenta" d="M925.94,-641C939.16,-641 952.92,-641 966.49,-641"/>
<polygon fill="magenta" stroke="magenta" points="966.82,-644.5 976.82,-641 966.82,-637.5 966.82,-644.5"/>
</g>
<!-- set_ptes.isra.0 -->
<g id="node5" class="node">
<title>set_ptes.isra.0</title>
<ellipse fill="none" stroke="magenta" cx="2039.59" cy="-857" rx="78.79" ry="18"/>
<text text-anchor="middle" x="2039.59" y="-853.3" font-family="Times,serif" font-size="14.00">set_ptes.isra.0</text>
</g>
<!-- __sync_icache_dcache -->
<g id="node42" class="node">
<title>__sync_icache_dcache</title>
<ellipse fill="none" stroke="magenta" cx="2360.27" cy="-857" rx="110.48" ry="18"/>
<text text-anchor="middle" x="2360.27" y="-853.3" font-family="Times,serif" font-size="14.00">__sync_icache_dcache</text>
</g>
<!-- set_ptes.isra.0&#45;&gt;__sync_icache_dcache -->
<g id="edge22" class="edge">
<title>set_ptes.isra.0&#45;&gt;__sync_icache_dcache</title>
<path fill="none" stroke="magenta" d="M2118.55,-857C2154.9,-857 2198.98,-857 2239.43,-857"/>
<polygon fill="magenta" stroke="magenta" points="2239.63,-860.5 2249.63,-857 2239.63,-853.5 2239.63,-860.5"/>
</g>
<!-- alloc_pages.constprop.0 -->
<g id="node6" class="node">
<title>alloc_pages.constprop.0</title>
<ellipse fill="none" stroke="magenta" cx="2039.59" cy="-618" rx="122.38" ry="18"/>
<text text-anchor="middle" x="2039.59" y="-614.3" font-family="Times,serif" font-size="14.00">alloc_pages.constprop.0</text>
</g>
<!-- __alloc_pages -->
<g id="node54" class="node">
<title>__alloc_pages</title>
<ellipse fill="none" stroke="magenta" cx="2360.27" cy="-545" rx="72.59" ry="18"/>
<text text-anchor="middle" x="2360.27" y="-541.3" font-family="Times,serif" font-size="14.00">__alloc_pages</text>
</g>
<!-- alloc_pages.constprop.0&#45;&gt;__alloc_pages -->
<g id="edge20" class="edge">
<title>alloc_pages.constprop.0&#45;&gt;__alloc_pages</title>
<path fill="none" stroke="magenta" d="M2113.81,-603.6C2133.04,-599.67 2153.75,-595.3 2172.83,-591 2215.19,-581.45 2262.71,-569.71 2299.18,-560.48"/>
<polygon fill="magenta" stroke="magenta" points="2300.32,-563.8 2309.15,-557.95 2298.6,-557.02 2300.32,-563.8"/>
</g>
<!-- __kmem_cache_alloc_lru.isra.0 -->
<g id="node7" class="node">
<title>__kmem_cache_alloc_lru.isra.0</title>
<ellipse fill="none" stroke="magenta" cx="2360.27" cy="-203" rx="151.37" ry="18"/>
<text text-anchor="middle" x="2360.27" y="-199.3" font-family="Times,serif" font-size="14.00">__kmem_cache_alloc_lru.isra.0</text>
</g>
<!-- slab_alloc_node.isra.0 -->
<g id="node13" class="node">
<title>slab_alloc_node.isra.0</title>
<ellipse fill="none" stroke="magenta" cx="2710.84" cy="-203" rx="111.58" ry="18"/>
<text text-anchor="middle" x="2710.84" y="-199.3" font-family="Times,serif" font-size="14.00">slab_alloc_node.isra.0</text>
</g>
<!-- __kmem_cache_alloc_lru.isra.0&#45;&gt;slab_alloc_node.isra.0 -->
<g id="edge62" class="edge">
<title>__kmem_cache_alloc_lru.isra.0&#45;&gt;slab_alloc_node.isra.0</title>
<path fill="none" stroke="magenta" d="M2511.88,-203C2537.61,-203 2564.04,-203 2588.88,-203"/>
<polygon fill="magenta" stroke="magenta" points="2589.04,-206.5 2599.04,-203 2589.04,-199.5 2589.04,-206.5"/>
</g>
<!-- __pmd_alloc -->
<g id="node8" class="node">
<title>__pmd_alloc</title>
<ellipse fill="none" stroke="magenta" cx="1717.62" cy="-564" rx="65.79" ry="18"/>
<text text-anchor="middle" x="1717.62" y="-560.3" font-family="Times,serif" font-size="14.00">__pmd_alloc</text>
</g>
<!-- __pmd_alloc&#45;&gt;alloc_pages.constprop.0 -->
<g id="edge33" class="edge">
<title>__pmd_alloc&#45;&gt;alloc_pages.constprop.0</title>
<path fill="none" stroke="magenta" d="M1773.99,-573.34C1822,-581.45 1892.38,-593.32 1948.49,-602.79"/>
<polygon fill="magenta" stroke="magenta" points="1947.99,-606.26 1958.44,-604.47 1949.16,-599.36 1947.99,-606.26"/>
</g>
<!-- mod_node_page_state -->
<g id="node50" class="node">
<title>mod_node_page_state</title>
<ellipse fill="none" stroke="magenta" cx="2039.59" cy="-564" rx="112.38" ry="18"/>
<text text-anchor="middle" x="2039.59" y="-560.3" font-family="Times,serif" font-size="14.00">mod_node_page_state</text>
</g>
<!-- __pmd_alloc&#45;&gt;mod_node_page_state -->
<g id="edge34" class="edge">
<title>__pmd_alloc&#45;&gt;mod_node_page_state</title>
<path fill="none" stroke="magenta" d="M1783.37,-564C1821.66,-564 1871.38,-564 1916.75,-564"/>
<polygon fill="magenta" stroke="magenta" points="1916.97,-567.5 1926.97,-564 1916.97,-560.5 1916.97,-567.5"/>
</g>
<!-- folio_unlock -->
<g id="node9" class="node">
<title>folio_unlock</title>
<ellipse fill="none" stroke="magenta" cx="1717.62" cy="-834" rx="65.79" ry="18"/>
<text text-anchor="middle" x="1717.62" y="-830.3" font-family="Times,serif" font-size="14.00">folio_unlock</text>
</g>
<!-- __handle_mm_fault&#45;&gt;set_ptes.isra.0 -->
<g id="edge40" class="edge">
<title>__handle_mm_fault&#45;&gt;set_ptes.isra.0</title>
<path fill="none" stroke="magenta" d="M1085.71,-658.97C1104.09,-693.28 1149.21,-767.85 1210.41,-803 1334.71,-874.39 1766.06,-867.43 1952.09,-860.78"/>
<polygon fill="magenta" stroke="magenta" points="1952.24,-864.28 1962.11,-860.42 1951.99,-857.29 1952.24,-864.28"/>
</g>
<!-- pte_offset_map_nolock -->
<g id="node18" class="node">
<title>pte_offset_map_nolock</title>
<ellipse fill="none" stroke="magenta" cx="1369.65" cy="-970" rx="115.08" ry="18"/>
<text text-anchor="middle" x="1369.65" y="-966.3" font-family="Times,serif" font-size="14.00">pte_offset_map_nolock</text>
</g>
<!-- __handle_mm_fault&#45;&gt;pte_offset_map_nolock -->
<g id="edge42" class="edge">
<title>__handle_mm_fault&#45;&gt;pte_offset_map_nolock</title>
<path fill="none" stroke="magenta" d="M1079.18,-659.35C1087.49,-711.58 1118.68,-862.07 1210.41,-936 1223.58,-946.61 1239.3,-954.11 1255.65,-959.38"/>
<polygon fill="magenta" stroke="magenta" points="1254.75,-962.76 1265.33,-962.23 1256.73,-956.05 1254.75,-962.76"/>
</g>
<!-- __pte_offset_map_lock -->
<g id="node19" class="node">
<title>__pte_offset_map_lock</title>
<ellipse fill="none" stroke="magenta" cx="1717.62" cy="-926" rx="112.38" ry="18"/>
<text text-anchor="middle" x="1717.62" y="-922.3" font-family="Times,serif" font-size="14.00">__pte_offset_map_lock</text>
</g>
<!-- __handle_mm_fault&#45;&gt;__pte_offset_map_lock -->
<g id="edge47" class="edge">
<title>__handle_mm_fault&#45;&gt;__pte_offset_map_lock</title>
<path fill="none" stroke="magenta" d="M1079.95,-659.12C1089.87,-707.21 1124.03,-838.17 1210.41,-894 1272.38,-934.05 1470.15,-935.38 1599.36,-931.52"/>
<polygon fill="magenta" stroke="magenta" points="1599.82,-935 1609.71,-931.19 1599.6,-928.01 1599.82,-935"/>
</g>
<!-- __pte_alloc -->
<g id="node21" class="node">
<title>__pte_alloc</title>
<ellipse fill="none" stroke="magenta" cx="1369.65" cy="-664" rx="60.39" ry="18"/>
<text text-anchor="middle" x="1369.65" y="-660.3" font-family="Times,serif" font-size="14.00">__pte_alloc</text>
</g>
<!-- __handle_mm_fault&#45;&gt;__pte_alloc -->
<g id="edge38" class="edge">
<title>__handle_mm_fault&#45;&gt;__pte_alloc</title>
<path fill="none" stroke="magenta" d="M1166.62,-648.09C1209.94,-651.5 1261.02,-655.52 1300.97,-658.67"/>
<polygon fill="magenta" stroke="magenta" points="1300.9,-662.17 1311.14,-659.47 1301.45,-655.2 1300.9,-662.17"/>
</g>
<!-- vmf_pte_changed -->
<g id="node24" class="node">
<title>vmf_pte_changed</title>
<ellipse fill="none" stroke="magenta" cx="1369.65" cy="-718" rx="90.98" ry="18"/>
<text text-anchor="middle" x="1369.65" y="-714.3" font-family="Times,serif" font-size="14.00">vmf_pte_changed</text>
</g>
<!-- __handle_mm_fault&#45;&gt;vmf_pte_changed -->
<g id="edge43" class="edge">
<title>__handle_mm_fault&#45;&gt;vmf_pte_changed</title>
<path fill="none" stroke="magenta" d="M1114.92,-657.52C1141.34,-668.36 1177.49,-682.13 1210.41,-691 1233.72,-697.28 1259.37,-702.41 1283.11,-706.43"/>
<polygon fill="magenta" stroke="magenta" points="1282.72,-709.92 1293.16,-708.09 1283.86,-703.01 1282.72,-709.92"/>
</g>
<!-- pmd_alloc -->
<g id="node30" class="node">
<title>pmd_alloc</title>
<ellipse fill="none" stroke="magenta" cx="1369.65" cy="-572" rx="57.39" ry="18"/>
<text text-anchor="middle" x="1369.65" y="-568.3" font-family="Times,serif" font-size="14.00">pmd_alloc</text>
</g>
<!-- __handle_mm_fault&#45;&gt;pmd_alloc -->
<g id="edge39" class="edge">
<title>__handle_mm_fault&#45;&gt;pmd_alloc</title>
<path fill="none" stroke="magenta" d="M1128.5,-625.74C1153.2,-618.71 1183.22,-610.5 1210.41,-604 1243.23,-596.15 1280.18,-588.61 1310.11,-582.82"/>
<polygon fill="magenta" stroke="magenta" points="1310.82,-586.25 1319.98,-580.93 1309.5,-579.37 1310.82,-586.25"/>
</g>
<!-- folio_add_new_anon_rmap -->
<g id="node31" class="node">
<title>folio_add_new_anon_rmap</title>
<ellipse fill="none" stroke="magenta" cx="1369.65" cy="-518" rx="131.08" ry="18"/>
<text text-anchor="middle" x="1369.65" y="-514.3" font-family="Times,serif" font-size="14.00">folio_add_new_anon_rmap</text>
</g>
<!-- __handle_mm_fault&#45;&gt;folio_add_new_anon_rmap -->
<g id="edge45" class="edge">
<title>__handle_mm_fault&#45;&gt;folio_add_new_anon_rmap</title>
<path fill="none" stroke="magenta" d="M1095.3,-623.28C1119.72,-601.2 1164.78,-564.06 1210.41,-545 1224.33,-539.18 1239.44,-534.62 1254.62,-531.04"/>
<polygon fill="magenta" stroke="magenta" points="1255.58,-534.41 1264.59,-528.83 1254.07,-527.58 1255.58,-534.41"/>
</g>
<!-- pte_alloc_one.isra.0 -->
<g id="node35" class="node">
<title>pte_alloc_one.isra.0</title>
<ellipse fill="none" stroke="magenta" cx="1717.62" cy="-618" rx="102.08" ry="18"/>
<text text-anchor="middle" x="1717.62" y="-614.3" font-family="Times,serif" font-size="14.00">pte_alloc_one.isra.0</text>
</g>
<!-- __handle_mm_fault&#45;&gt;pte_alloc_one.isra.0 -->
<g id="edge37" class="edge">
<title>__handle_mm_fault&#45;&gt;pte_alloc_one.isra.0</title>
<path fill="none" stroke="magenta" d="M1172.78,-637.54C1289.28,-633.36 1485.09,-626.32 1607.24,-621.93"/>
<polygon fill="magenta" stroke="magenta" points="1607.5,-625.42 1617.37,-621.57 1607.25,-618.43 1607.5,-625.42"/>
</g>
<!-- filemap_map_pages -->
<g id="node41" class="node">
<title>filemap_map_pages</title>
<ellipse fill="none" stroke="magenta" cx="1369.65" cy="-776" rx="101.28" ry="18"/>
<text text-anchor="middle" x="1369.65" y="-772.3" font-family="Times,serif" font-size="14.00">filemap_map_pages</text>
</g>
<!-- __handle_mm_fault&#45;&gt;filemap_map_pages -->
<g id="edge46" class="edge">
<title>__handle_mm_fault&#45;&gt;filemap_map_pages</title>
<path fill="none" stroke="magenta" d="M1093.84,-658.84C1117.72,-682.44 1163.28,-723.55 1210.41,-745 1229.77,-753.81 1251.57,-760.12 1272.66,-764.64"/>
<polygon fill="magenta" stroke="magenta" points="1272.12,-768.1 1282.62,-766.66 1273.51,-761.24 1272.12,-768.1"/>
</g>
<!-- __anon_vma_prepare -->
<g id="node46" class="node">
<title>__anon_vma_prepare</title>
<ellipse fill="none" stroke="magenta" cx="1369.65" cy="-249" rx="106.68" ry="18"/>
<text text-anchor="middle" x="1369.65" y="-245.3" font-family="Times,serif" font-size="14.00">__anon_vma_prepare</text>
</g>
<!-- __handle_mm_fault&#45;&gt;__anon_vma_prepare -->
<g id="edge44" class="edge">
<title>__handle_mm_fault&#45;&gt;__anon_vma_prepare</title>
<path fill="none" stroke="magenta" d="M1106.2,-623.76C1128.23,-609.42 1157.33,-587.02 1174.41,-560 1209.2,-504.96 1179.17,-475.12 1210.41,-418 1243.22,-358 1302.31,-303.11 1338.26,-273.04"/>
<polygon fill="magenta" stroke="magenta" points="1340.51,-275.71 1345.99,-266.65 1336.05,-270.31 1340.51,-275.71"/>
</g>
<!-- folio_add_lru_vma -->
<g id="node59" class="node">
<title>folio_add_lru_vma</title>
<ellipse fill="none" stroke="magenta" cx="1369.65" cy="-118" rx="93.68" ry="18"/>
<text text-anchor="middle" x="1369.65" y="-114.3" font-family="Times,serif" font-size="14.00">folio_add_lru_vma</text>
</g>
<!-- __handle_mm_fault&#45;&gt;folio_add_lru_vma -->
<g id="edge36" class="edge">
<title>__handle_mm_fault&#45;&gt;folio_add_lru_vma</title>
<path fill="none" stroke="magenta" d="M1108.25,-623.82C1130.74,-609.8 1159.5,-587.78 1174.41,-560 1245.85,-426.89 1131.74,-350.97 1210.41,-222 1234.53,-182.45 1280.04,-154.93 1316.08,-138.18"/>
<polygon fill="magenta" stroke="magenta" points="1317.81,-141.24 1325.5,-133.95 1314.94,-134.86 1317.81,-141.24"/>
</g>
<!-- vma_alloc_zeroed_movable_folio -->
<g id="node62" class="node">
<title>vma_alloc_zeroed_movable_folio</title>
<ellipse fill="none" stroke="magenta" cx="1369.65" cy="-445" rx="159.47" ry="18"/>
<text text-anchor="middle" x="1369.65" y="-441.3" font-family="Times,serif" font-size="14.00">vma_alloc_zeroed_movable_folio</text>
</g>
<!-- __handle_mm_fault&#45;&gt;vma_alloc_zeroed_movable_folio -->
<g id="edge41" class="edge">
<title>__handle_mm_fault&#45;&gt;vma_alloc_zeroed_movable_folio</title>
<path fill="none" stroke="magenta" d="M1103.2,-623.46C1124.42,-608.48 1153.9,-585.37 1174.41,-560 1196.16,-533.1 1183.66,-512.92 1210.41,-491 1225.84,-478.36 1244.6,-469.19 1263.74,-462.54"/>
<polygon fill="magenta" stroke="magenta" points="1265.03,-465.8 1273.45,-459.38 1262.86,-459.15 1265.03,-465.8"/>
</g>
<!-- do_page_fault&#45;&gt;handle_mm_fault -->
<g id="edge65" class="edge">
<title>do_page_fault&#45;&gt;handle_mm_fault</title>
<path fill="none" stroke="magenta" d="M672.92,-599.93C701.95,-607.28 738.61,-616.56 769.74,-624.44"/>
<polygon fill="magenta" stroke="magenta" points="769.08,-627.88 779.63,-626.94 770.79,-621.09 769.08,-627.88"/>
</g>
<!-- up_read -->
<g id="node26" class="node">
<title>up_read</title>
<ellipse fill="none" stroke="magenta" cx="836.19" cy="-587" rx="48.19" ry="18"/>
<text text-anchor="middle" x="836.19" y="-583.3" font-family="Times,serif" font-size="14.00">up_read</text>
</g>
<!-- do_page_fault&#45;&gt;up_read -->
<g id="edge63" class="edge">
<title>do_page_fault&#45;&gt;up_read</title>
<path fill="none" stroke="magenta" d="M695.84,-587C722.71,-587 752.64,-587 777.85,-587"/>
<polygon fill="magenta" stroke="magenta" points="777.99,-590.5 787.99,-587 777.99,-583.5 777.99,-590.5"/>
</g>
<!-- lock_vma_under_rcu -->
<g id="node53" class="node">
<title>lock_vma_under_rcu</title>
<ellipse fill="none" stroke="magenta" cx="836.19" cy="-533" rx="104.78" ry="18"/>
<text text-anchor="middle" x="836.19" y="-529.3" font-family="Times,serif" font-size="14.00">lock_vma_under_rcu</text>
</g>
<!-- do_page_fault&#45;&gt;lock_vma_under_rcu -->
<g id="edge64" class="edge">
<title>do_page_fault&#45;&gt;lock_vma_under_rcu</title>
<path fill="none" stroke="magenta" d="M672.92,-574.07C701.06,-566.94 736.37,-558.01 766.86,-550.29"/>
<polygon fill="magenta" stroke="magenta" points="767.74,-553.68 776.57,-547.83 766.02,-546.89 767.74,-553.68"/>
</g>
<!-- sync_icache_aliases -->
<g id="node12" class="node">
<title>sync_icache_aliases</title>
<ellipse fill="none" stroke="magenta" cx="2710.84" cy="-857" rx="101.28" ry="18"/>
<text text-anchor="middle" x="2710.84" y="-853.3" font-family="Times,serif" font-size="14.00">sync_icache_aliases</text>
</g>
<!-- __slab_alloc_node.constprop.0 -->
<g id="node15" class="node">
<title>__slab_alloc_node.constprop.0</title>
<ellipse fill="none" stroke="magenta" cx="3059.46" cy="-230" rx="149.47" ry="18"/>
<text text-anchor="middle" x="3059.46" y="-226.3" font-family="Times,serif" font-size="14.00">__slab_alloc_node.constprop.0</text>
</g>
<!-- slab_alloc_node.isra.0&#45;&gt;__slab_alloc_node.constprop.0 -->
<g id="edge6" class="edge">
<title>slab_alloc_node.isra.0&#45;&gt;__slab_alloc_node.constprop.0</title>
<path fill="none" stroke="magenta" d="M2812.1,-210.81C2846.73,-213.51 2886.13,-216.58 2923.1,-219.46"/>
<polygon fill="magenta" stroke="magenta" points="2923.22,-222.98 2933.46,-220.26 2923.76,-216 2923.22,-222.98"/>
</g>
<!-- should_failslab -->
<g id="node40" class="node">
<title>should_failslab</title>
<ellipse fill="none" stroke="magenta" cx="3059.46" cy="-176" rx="79.09" ry="18"/>
<text text-anchor="middle" x="3059.46" y="-172.3" font-family="Times,serif" font-size="14.00">should_failslab</text>
</g>
<!-- slab_alloc_node.isra.0&#45;&gt;should_failslab -->
<g id="edge7" class="edge">
<title>slab_alloc_node.isra.0&#45;&gt;should_failslab</title>
<path fill="none" stroke="magenta" d="M2812.1,-195.19C2863.43,-191.19 2925.23,-186.38 2974.09,-182.57"/>
<polygon fill="magenta" stroke="magenta" points="2974.62,-186.04 2984.31,-181.78 2974.07,-179.06 2974.62,-186.04"/>
</g>
<!-- kernel_init_pages -->
<g id="node14" class="node">
<title>kernel_init_pages</title>
<ellipse fill="none" stroke="magenta" cx="3683.26" cy="-572" rx="91.78" ry="18"/>
<text text-anchor="middle" x="3683.26" y="-568.3" font-family="Times,serif" font-size="14.00">kernel_init_pages</text>
</g>
<!-- down_write -->
<g id="node16" class="node">
<title>down_write</title>
<ellipse fill="none" stroke="magenta" cx="1717.62" cy="-272" rx="64.19" ry="18"/>
<text text-anchor="middle" x="1717.62" y="-268.3" font-family="Times,serif" font-size="14.00">down_write</text>
</g>
<!-- next_uptodate_folio -->
<g id="node17" class="node">
<title>next_uptodate_folio</title>
<ellipse fill="none" stroke="magenta" cx="1717.62" cy="-726" rx="101.28" ry="18"/>
<text text-anchor="middle" x="1717.62" y="-722.3" font-family="Times,serif" font-size="14.00">next_uptodate_folio</text>
</g>
<!-- __pte_offset_map -->
<g id="node37" class="node">
<title>__pte_offset_map</title>
<ellipse fill="none" stroke="magenta" cx="2039.59" cy="-949" rx="89.88" ry="18"/>
<text text-anchor="middle" x="2039.59" y="-945.3" font-family="Times,serif" font-size="14.00">__pte_offset_map</text>
</g>
<!-- pte_offset_map_nolock&#45;&gt;__pte_offset_map -->
<g id="edge3" class="edge">
<title>pte_offset_map_nolock&#45;&gt;__pte_offset_map</title>
<path fill="none" stroke="magenta" d="M1482.82,-966.47C1611.04,-962.44 1818.86,-955.91 1940.75,-952.08"/>
<polygon fill="magenta" stroke="magenta" points="1940.94,-955.57 1950.83,-951.76 1940.72,-948.58 1940.94,-955.57"/>
</g>
<!-- __pte_offset_map_lock&#45;&gt;__pte_offset_map -->
<g id="edge4" class="edge">
<title>__pte_offset_map_lock&#45;&gt;__pte_offset_map</title>
<path fill="none" stroke="magenta" d="M1820.74,-933.34C1860.45,-936.19 1905.65,-939.44 1944.55,-942.24"/>
<polygon fill="magenta" stroke="magenta" points="1944.59,-945.75 1954.82,-942.98 1945.09,-938.77 1944.59,-945.75"/>
</g>
<!-- __page_set_anon_rmap -->
<g id="node20" class="node">
<title>__page_set_anon_rmap</title>
<ellipse fill="none" stroke="magenta" cx="1717.62" cy="-472" rx="116.18" ry="18"/>
<text text-anchor="middle" x="1717.62" y="-468.3" font-family="Times,serif" font-size="14.00">__page_set_anon_rmap</text>
</g>
<!-- __pte_alloc&#45;&gt;pte_alloc_one.isra.0 -->
<g id="edge1" class="edge">
<title>__pte_alloc&#45;&gt;pte_alloc_one.isra.0</title>
<path fill="none" stroke="magenta" d="M1425.09,-656.76C1478.73,-649.63 1561.69,-638.6 1625.42,-630.13"/>
<polygon fill="magenta" stroke="magenta" points="1626.02,-633.58 1635.47,-628.79 1625.1,-626.64 1626.02,-633.58"/>
</g>
<!-- pmd_install -->
<g id="node65" class="node">
<title>pmd_install</title>
<ellipse fill="none" stroke="magenta" cx="1717.62" cy="-672" rx="64.19" ry="18"/>
<text text-anchor="middle" x="1717.62" y="-668.3" font-family="Times,serif" font-size="14.00">pmd_install</text>
</g>
<!-- __pte_alloc&#45;&gt;pmd_install -->
<g id="edge2" class="edge">
<title>__pte_alloc&#45;&gt;pmd_install</title>
<path fill="none" stroke="magenta" d="M1430.12,-665.38C1489.05,-666.74 1579.45,-668.83 1642.9,-670.3"/>
<polygon fill="magenta" stroke="magenta" points="1643.16,-673.8 1653.24,-670.53 1643.33,-666.8 1643.16,-673.8"/>
</g>
<!-- kmem_cache_free -->
<g id="node22" class="node">
<title>kmem_cache_free</title>
<ellipse fill="none" stroke="magenta" cx="2710.84" cy="-72" rx="92.88" ry="18"/>
<text text-anchor="middle" x="2710.84" y="-68.3" font-family="Times,serif" font-size="14.00">kmem_cache_free</text>
</g>
<!-- slab_free.constprop.0.isra.0 -->
<g id="node33" class="node">
<title>slab_free.constprop.0.isra.0</title>
<ellipse fill="none" stroke="magenta" cx="3059.46" cy="-72" rx="139.98" ry="18"/>
<text text-anchor="middle" x="3059.46" y="-68.3" font-family="Times,serif" font-size="14.00">slab_free.constprop.0.isra.0</text>
</g>
<!-- kmem_cache_free&#45;&gt;slab_free.constprop.0.isra.0 -->
<g id="edge10" class="edge">
<title>kmem_cache_free&#45;&gt;slab_free.constprop.0.isra.0</title>
<path fill="none" stroke="magenta" d="M2803.82,-72C2836.27,-72 2873.64,-72 2909.58,-72"/>
<polygon fill="magenta" stroke="magenta" points="2909.67,-75.5 2919.67,-72 2909.67,-68.5 2909.67,-75.5"/>
</g>
<!-- set_pte_range -->
<g id="node23" class="node">
<title>set_pte_range</title>
<ellipse fill="none" stroke="magenta" cx="1717.62" cy="-780" rx="75.29" ry="18"/>
<text text-anchor="middle" x="1717.62" y="-776.3" font-family="Times,serif" font-size="14.00">set_pte_range</text>
</g>
<!-- set_pte_range&#45;&gt;set_ptes.isra.0 -->
<g id="edge30" class="edge">
<title>set_pte_range&#45;&gt;set_ptes.isra.0</title>
<path fill="none" stroke="magenta" d="M1781.7,-789.59C1809.09,-794.17 1841.46,-800.16 1870.36,-807 1908.78,-816.1 1951.42,-828.8 1984.15,-839.12"/>
<polygon fill="magenta" stroke="magenta" points="1983.39,-842.55 1993.98,-842.24 1985.51,-835.88 1983.39,-842.55"/>
</g>
<!-- folio_add_file_rmap_range -->
<g id="node25" class="node">
<title>folio_add_file_rmap_range</title>
<ellipse fill="none" stroke="magenta" cx="2039.59" cy="-699" rx="131.08" ry="18"/>
<text text-anchor="middle" x="2039.59" y="-695.3" font-family="Times,serif" font-size="14.00">folio_add_file_rmap_range</text>
</g>
<!-- set_pte_range&#45;&gt;folio_add_file_rmap_range -->
<g id="edge29" class="edge">
<title>set_pte_range&#45;&gt;folio_add_file_rmap_range</title>
<path fill="none" stroke="magenta" d="M1782.14,-770.65C1809.47,-766.13 1841.66,-760.12 1870.36,-753 1908.13,-743.62 1949.79,-730.28 1982.2,-719.2"/>
<polygon fill="magenta" stroke="magenta" points="1983.63,-722.41 1991.94,-715.84 1981.35,-715.79 1983.63,-722.41"/>
</g>
<!-- read_sanitised_ftr_reg -->
<g id="node61" class="node">
<title>read_sanitised_ftr_reg</title>
<ellipse fill="none" stroke="magenta" cx="2039.59" cy="-780" rx="114.28" ry="18"/>
<text text-anchor="middle" x="2039.59" y="-776.3" font-family="Times,serif" font-size="14.00">read_sanitised_ftr_reg</text>
</g>
<!-- set_pte_range&#45;&gt;read_sanitised_ftr_reg -->
<g id="edge31" class="edge">
<title>set_pte_range&#45;&gt;read_sanitised_ftr_reg</title>
<path fill="none" stroke="magenta" d="M1793.24,-780C1829.4,-780 1873.8,-780 1914.84,-780"/>
<polygon fill="magenta" stroke="magenta" points="1914.92,-783.5 1924.92,-780 1914.92,-776.5 1914.92,-783.5"/>
</g>
<!-- __mod_node_page_state -->
<g id="node32" class="node">
<title>__mod_node_page_state</title>
<ellipse fill="none" stroke="magenta" cx="2360.27" cy="-649" rx="120.78" ry="18"/>
<text text-anchor="middle" x="2360.27" y="-645.3" font-family="Times,serif" font-size="14.00">__mod_node_page_state</text>
</g>
<!-- folio_add_file_rmap_range&#45;&gt;__mod_node_page_state -->
<g id="edge35" class="edge">
<title>folio_add_file_rmap_range&#45;&gt;__mod_node_page_state</title>
<path fill="none" stroke="magenta" d="M2126.83,-685.47C2169.93,-678.71 2222.13,-670.52 2266.14,-663.61"/>
<polygon fill="magenta" stroke="magenta" points="2266.93,-667.03 2276.26,-662.02 2265.84,-660.12 2266.93,-667.03"/>
</g>
<!-- __folio_alloc -->
<g id="node27" class="node">
<title>__folio_alloc</title>
<ellipse fill="none" stroke="magenta" cx="2039.59" cy="-449" rx="65.79" ry="18"/>
<text text-anchor="middle" x="2039.59" y="-445.3" font-family="Times,serif" font-size="14.00">__folio_alloc</text>
</g>
<!-- __folio_alloc&#45;&gt;__alloc_pages -->
<g id="edge55" class="edge">
<title>__folio_alloc&#45;&gt;__alloc_pages</title>
<path fill="none" stroke="magenta" d="M2084.57,-462.25C2141.7,-479.46 2241.48,-509.52 2303.76,-528.28"/>
<polygon fill="magenta" stroke="magenta" points="2302.84,-531.66 2313.43,-531.19 2304.86,-524.95 2302.84,-531.66"/>
</g>
<!-- do_mem_abort -->
<g id="node29" class="node">
<title>do_mem_abort</title>
<ellipse fill="none" stroke="magenta" cx="190.04" cy="-587" rx="78.79" ry="18"/>
<text text-anchor="middle" x="190.04" y="-583.3" font-family="Times,serif" font-size="14.00">do_mem_abort</text>
</g>
<!-- do_mem_abort&#45;&gt;do_translation_fault -->
<g id="edge27" class="edge">
<title>do_mem_abort&#45;&gt;do_translation_fault</title>
<path fill="none" stroke="magenta" d="M268.78,-587C277.09,-587 285.66,-587 294.27,-587"/>
<polygon fill="magenta" stroke="magenta" points="294.38,-590.5 304.38,-587 294.38,-583.5 294.38,-590.5"/>
</g>
<!-- pmd_alloc&#45;&gt;__pmd_alloc -->
<g id="edge8" class="edge">
<title>pmd_alloc&#45;&gt;__pmd_alloc</title>
<path fill="none" stroke="magenta" d="M1427,-570.7C1485.53,-569.34 1577.39,-567.22 1641.93,-565.73"/>
<polygon fill="magenta" stroke="magenta" points="1642.13,-569.22 1652.04,-565.49 1641.96,-562.23 1642.13,-569.22"/>
</g>
<!-- folio_add_new_anon_rmap&#45;&gt;__page_set_anon_rmap -->
<g id="edge61" class="edge">
<title>folio_add_new_anon_rmap&#45;&gt;__page_set_anon_rmap</title>
<path fill="none" stroke="magenta" d="M1464.73,-505.49C1512.46,-499.15 1570.39,-491.44 1618.65,-485.03"/>
<polygon fill="magenta" stroke="magenta" points="1619.35,-488.46 1628.8,-483.68 1618.42,-481.53 1619.35,-488.46"/>
</g>
<!-- folio_add_new_anon_rmap&#45;&gt;__mod_node_page_state -->
<g id="edge60" class="edge">
<title>folio_add_new_anon_rmap&#45;&gt;__mod_node_page_state</title>
<path fill="none" stroke="magenta" d="M1488.66,-510.36C1681.06,-499.65 2052.9,-486.65 2172.83,-537 2193.41,-545.64 2190.7,-558.99 2208.83,-572 2240.16,-594.47 2278.97,-614.16 2309.32,-628"/>
<polygon fill="magenta" stroke="magenta" points="2307.89,-631.2 2318.45,-632.11 2310.76,-624.82 2307.89,-631.2"/>
</g>
<!-- free_to_partial_list.constprop.0 -->
<g id="node55" class="node">
<title>free_to_partial_list.constprop.0</title>
<ellipse fill="none" stroke="magenta" cx="3400.29" cy="-72" rx="155.17" ry="18"/>
<text text-anchor="middle" x="3400.29" y="-68.3" font-family="Times,serif" font-size="14.00">free_to_partial_list.constprop.0</text>
</g>
<!-- slab_free.constprop.0.isra.0&#45;&gt;free_to_partial_list.constprop.0 -->
<g id="edge50" class="edge">
<title>slab_free.constprop.0.isra.0&#45;&gt;free_to_partial_list.constprop.0</title>
<path fill="none" stroke="magenta" d="M3199.25,-72C3210.84,-72 3222.63,-72 3234.39,-72"/>
<polygon fill="magenta" stroke="magenta" points="3234.71,-75.5 3244.71,-72 3234.71,-68.5 3234.71,-75.5"/>
</g>
<!-- anon_vma_interval_tree_insert -->
<g id="node34" class="node">
<title>anon_vma_interval_tree_insert</title>
<ellipse fill="none" stroke="magenta" cx="1717.62" cy="-126" rx="152.97" ry="18"/>
<text text-anchor="middle" x="1717.62" y="-122.3" font-family="Times,serif" font-size="14.00">anon_vma_interval_tree_insert</text>
</g>
<!-- pte_alloc_one.isra.0&#45;&gt;alloc_pages.constprop.0 -->
<g id="edge25" class="edge">
<title>pte_alloc_one.isra.0&#45;&gt;alloc_pages.constprop.0</title>
<path fill="none" stroke="magenta" d="M1819.86,-618C1847.54,-618 1877.94,-618 1907.05,-618"/>
<polygon fill="magenta" stroke="magenta" points="1907.28,-621.5 1917.28,-618 1907.28,-614.5 1907.28,-621.5"/>
</g>
<!-- pte_alloc_one.isra.0&#45;&gt;mod_node_page_state -->
<g id="edge24" class="edge">
<title>pte_alloc_one.isra.0&#45;&gt;mod_node_page_state</title>
<path fill="none" stroke="magenta" d="M1792.03,-605.61C1839.5,-597.6 1901.52,-587.13 1951.48,-578.7"/>
<polygon fill="magenta" stroke="magenta" points="1952.35,-582.1 1961.63,-576.99 1951.18,-575.2 1952.35,-582.1"/>
</g>
<!-- __put_anon_vma -->
<g id="node36" class="node">
<title>__put_anon_vma</title>
<ellipse fill="none" stroke="magenta" cx="2039.59" cy="-72" rx="85.59" ry="18"/>
<text text-anchor="middle" x="2039.59" y="-68.3" font-family="Times,serif" font-size="14.00">__put_anon_vma</text>
</g>
<!-- anon_vma_free -->
<g id="node64" class="node">
<title>anon_vma_free</title>
<ellipse fill="none" stroke="magenta" cx="2360.27" cy="-72" rx="79.89" ry="18"/>
<text text-anchor="middle" x="2360.27" y="-68.3" font-family="Times,serif" font-size="14.00">anon_vma_free</text>
</g>
<!-- __put_anon_vma&#45;&gt;anon_vma_free -->
<g id="edge53" class="edge">
<title>__put_anon_vma&#45;&gt;anon_vma_free</title>
<path fill="none" stroke="magenta" d="M2125.57,-72C2170.23,-72 2224.93,-72 2270.17,-72"/>
<polygon fill="magenta" stroke="magenta" points="2270.27,-75.5 2280.27,-72 2270.27,-68.5 2270.27,-75.5"/>
</g>
<!-- bsearch -->
<g id="node57" class="node">
<title>bsearch</title>
<ellipse fill="none" stroke="magenta" cx="3059.46" cy="-780" rx="47.39" ry="18"/>
<text text-anchor="middle" x="3059.46" y="-776.3" font-family="Times,serif" font-size="14.00">bsearch</text>
</g>
<!-- get_arm64_ftr_reg_nowarn&#45;&gt;bsearch -->
<g id="edge66" class="edge">
<title>get_arm64_ftr_reg_nowarn&#45;&gt;bsearch</title>
<path fill="none" stroke="magenta" d="M2846.85,-780C2900.76,-780 2959.88,-780 3001.89,-780"/>
<polygon fill="magenta" stroke="magenta" points="3001.92,-783.5 3011.92,-780 3001.92,-776.5 3001.92,-783.5"/>
</g>
<!-- prepare_alloc_pages.constprop.0 -->
<g id="node39" class="node">
<title>prepare_alloc_pages.constprop.0</title>
<ellipse fill="none" stroke="magenta" cx="2710.84" cy="-518" rx="163.27" ry="18"/>
<text text-anchor="middle" x="2710.84" y="-514.3" font-family="Times,serif" font-size="14.00">prepare_alloc_pages.constprop.0</text>
</g>
<!-- should_fail_alloc_page -->
<g id="node47" class="node">
<title>should_fail_alloc_page</title>
<ellipse fill="none" stroke="magenta" cx="3059.46" cy="-518" rx="113.18" ry="18"/>
<text text-anchor="middle" x="3059.46" y="-514.3" font-family="Times,serif" font-size="14.00">should_fail_alloc_page</text>
</g>
<!-- prepare_alloc_pages.constprop.0&#45;&gt;should_fail_alloc_page -->
<g id="edge21" class="edge">
<title>prepare_alloc_pages.constprop.0&#45;&gt;should_fail_alloc_page</title>
<path fill="none" stroke="magenta" d="M2873.99,-518C2894.79,-518 2915.81,-518 2935.83,-518"/>
<polygon fill="magenta" stroke="magenta" points="2935.89,-521.5 2945.89,-518 2935.89,-514.5 2935.89,-521.5"/>
</g>
<!-- filemap_map_pages&#45;&gt;folio_unlock -->
<g id="edge72" class="edge">
<title>filemap_map_pages&#45;&gt;folio_unlock</title>
<path fill="none" stroke="magenta" d="M1444.02,-788.3C1505.43,-798.6 1592.24,-813.15 1651.29,-823.05"/>
<polygon fill="magenta" stroke="magenta" points="1650.8,-826.51 1661.24,-824.72 1651.96,-819.61 1650.8,-826.51"/>
</g>
<!-- filemap_map_pages&#45;&gt;next_uptodate_folio -->
<g id="edge68" class="edge">
<title>filemap_map_pages&#45;&gt;next_uptodate_folio</title>
<path fill="none" stroke="magenta" d="M1448.72,-764.72C1502.1,-757 1572.94,-746.76 1628.37,-738.75"/>
<polygon fill="magenta" stroke="magenta" points="1629.13,-742.18 1638.53,-737.29 1628.13,-735.25 1629.13,-742.18"/>
</g>
<!-- filemap_map_pages&#45;&gt;__pte_offset_map_lock -->
<g id="edge70" class="edge">
<title>filemap_map_pages&#45;&gt;__pte_offset_map_lock</title>
<path fill="none" stroke="magenta" d="M1408.57,-792.7C1447.7,-809.9 1510.5,-837.45 1564.88,-861 1599.17,-875.85 1637.9,-892.43 1667.64,-905.13"/>
<polygon fill="magenta" stroke="magenta" points="1666.4,-908.41 1676.97,-909.11 1669.14,-901.97 1666.4,-908.41"/>
</g>
<!-- filemap_map_pages&#45;&gt;set_pte_range -->
<g id="edge71" class="edge">
<title>filemap_map_pages&#45;&gt;set_pte_range</title>
<path fill="none" stroke="magenta" d="M1471.18,-777.16C1522.22,-777.75 1583.52,-778.46 1632.1,-779.02"/>
<polygon fill="magenta" stroke="magenta" points="1632.22,-782.52 1642.26,-779.14 1632.3,-775.52 1632.22,-782.52"/>
</g>
<!-- filemap_map_pages&#45;&gt;pmd_install -->
<g id="edge69" class="edge">
<title>filemap_map_pages&#45;&gt;pmd_install</title>
<path fill="none" stroke="magenta" d="M1463.46,-769.14C1486.05,-764.49 1509.32,-757 1528.88,-745 1551.01,-731.43 1542.64,-712.38 1564.88,-699 1588.16,-685 1616.84,-677.86 1642.98,-674.34"/>
<polygon fill="magenta" stroke="magenta" points="1643.71,-677.77 1653.23,-673.12 1642.89,-670.82 1643.71,-677.77"/>
</g>
<!-- __sync_icache_dcache&#45;&gt;sync_icache_aliases -->
<g id="edge59" class="edge">
<title>__sync_icache_dcache&#45;&gt;sync_icache_aliases</title>
<path fill="none" stroke="magenta" d="M2471.08,-857C2511.92,-857 2558.25,-857 2599.16,-857"/>
<polygon fill="magenta" stroke="magenta" points="2599.16,-860.5 2609.16,-857 2599.16,-853.5 2599.16,-860.5"/>
</g>
<!-- down_read_trylock -->
<g id="node43" class="node">
<title>down_read_trylock</title>
<ellipse fill="none" stroke="magenta" cx="1075.62" cy="-533" rx="97.48" ry="18"/>
<text text-anchor="middle" x="1075.62" y="-529.3" font-family="Times,serif" font-size="14.00">down_read_trylock</text>
</g>
<!-- put_anon_vma -->
<g id="node44" class="node">
<title>put_anon_vma</title>
<ellipse fill="none" stroke="magenta" cx="1717.62" cy="-72" rx="77.19" ry="18"/>
<text text-anchor="middle" x="1717.62" y="-68.3" font-family="Times,serif" font-size="14.00">put_anon_vma</text>
</g>
<!-- put_anon_vma&#45;&gt;__put_anon_vma -->
<g id="edge26" class="edge">
<title>put_anon_vma&#45;&gt;__put_anon_vma</title>
<path fill="none" stroke="magenta" d="M1795.26,-72C1839.7,-72 1896.04,-72 1943.32,-72"/>
<polygon fill="magenta" stroke="magenta" points="1943.57,-75.5 1953.57,-72 1943.57,-68.5 1943.57,-75.5"/>
</g>
<!-- prep_new_page -->
<g id="node45" class="node">
<title>prep_new_page</title>
<ellipse fill="none" stroke="magenta" cx="3059.46" cy="-572" rx="82.59" ry="18"/>
<text text-anchor="middle" x="3059.46" y="-568.3" font-family="Times,serif" font-size="14.00">prep_new_page</text>
</g>
<!-- post_alloc_hook -->
<g id="node51" class="node">
<title>post_alloc_hook</title>
<ellipse fill="none" stroke="magenta" cx="3400.29" cy="-572" rx="83.39" ry="18"/>
<text text-anchor="middle" x="3400.29" y="-568.3" font-family="Times,serif" font-size="14.00">post_alloc_hook</text>
</g>
<!-- prep_new_page&#45;&gt;post_alloc_hook -->
<g id="edge57" class="edge">
<title>prep_new_page&#45;&gt;post_alloc_hook</title>
<path fill="none" stroke="magenta" d="M3142.05,-572C3191.71,-572 3255.28,-572 3306.8,-572"/>
<polygon fill="magenta" stroke="magenta" points="3306.94,-575.5 3316.94,-572 3306.94,-568.5 3306.94,-575.5"/>
</g>
<!-- __anon_vma_prepare&#45;&gt;down_write -->
<g id="edge14" class="edge">
<title>__anon_vma_prepare&#45;&gt;down_write</title>
<path fill="none" stroke="magenta" d="M1469.33,-255.56C1525.2,-259.27 1593.83,-263.84 1644.61,-267.21"/>
<polygon fill="magenta" stroke="magenta" points="1644.63,-270.72 1654.84,-267.89 1645.09,-263.74 1644.63,-270.72"/>
</g>
<!-- __anon_vma_prepare&#45;&gt;anon_vma_interval_tree_insert -->
<g id="edge17" class="edge">
<title>__anon_vma_prepare&#45;&gt;anon_vma_interval_tree_insert</title>
<path fill="none" stroke="magenta" d="M1399.17,-231.68C1436.09,-210.02 1503.06,-173.32 1564.88,-153 1578.31,-148.59 1592.65,-144.85 1606.96,-141.69"/>
<polygon fill="magenta" stroke="magenta" points="1607.8,-145.09 1616.85,-139.59 1606.35,-138.24 1607.8,-145.09"/>
</g>
<!-- __anon_vma_prepare&#45;&gt;put_anon_vma -->
<g id="edge15" class="edge">
<title>__anon_vma_prepare&#45;&gt;put_anon_vma</title>
<path fill="none" stroke="magenta" d="M1403.14,-231.82C1436.74,-213.14 1489.7,-181.07 1528.88,-145 1547.98,-127.42 1542.64,-112.38 1564.88,-99 1584.66,-87.11 1608.33,-80.16 1631.03,-76.18"/>
<polygon fill="magenta" stroke="magenta" points="1631.69,-79.62 1641.02,-74.61 1630.6,-72.71 1631.69,-79.62"/>
</g>
<!-- kmem_cache_alloc -->
<g id="node49" class="node">
<title>kmem_cache_alloc</title>
<ellipse fill="none" stroke="magenta" cx="2039.59" cy="-203" rx="95.58" ry="18"/>
<text text-anchor="middle" x="2039.59" y="-199.3" font-family="Times,serif" font-size="14.00">kmem_cache_alloc</text>
</g>
<!-- __anon_vma_prepare&#45;&gt;kmem_cache_alloc -->
<g id="edge12" class="edge">
<title>__anon_vma_prepare&#45;&gt;kmem_cache_alloc</title>
<path fill="none" stroke="magenta" d="M1468.85,-242.24C1595.07,-233.54 1812.99,-218.54 1939.6,-209.82"/>
<polygon fill="magenta" stroke="magenta" points="1939.94,-213.3 1949.68,-209.12 1939.46,-206.32 1939.94,-213.3"/>
</g>
<!-- up_write -->
<g id="node52" class="node">
<title>up_write</title>
<ellipse fill="none" stroke="magenta" cx="1717.62" cy="-380" rx="51.19" ry="18"/>
<text text-anchor="middle" x="1717.62" y="-376.3" font-family="Times,serif" font-size="14.00">up_write</text>
</g>
<!-- __anon_vma_prepare&#45;&gt;up_write -->
<g id="edge18" class="edge">
<title>__anon_vma_prepare&#45;&gt;up_write</title>
<path fill="none" stroke="magenta" d="M1396.75,-266.46C1432.94,-289.82 1501.1,-330.88 1564.88,-353 1594.6,-363.31 1629.03,-369.84 1657.57,-373.9"/>
<polygon fill="magenta" stroke="magenta" points="1657.42,-377.41 1667.79,-375.28 1658.35,-370.47 1657.42,-377.41"/>
</g>
<!-- find_mergeable_anon_vma -->
<g id="node56" class="node">
<title>find_mergeable_anon_vma</title>
<ellipse fill="none" stroke="magenta" cx="1717.62" cy="-326" rx="133.48" ry="18"/>
<text text-anchor="middle" x="1717.62" y="-322.3" font-family="Times,serif" font-size="14.00">find_mergeable_anon_vma</text>
</g>
<!-- __anon_vma_prepare&#45;&gt;find_mergeable_anon_vma -->
<g id="edge13" class="edge">
<title>__anon_vma_prepare&#45;&gt;find_mergeable_anon_vma</title>
<path fill="none" stroke="magenta" d="M1425.64,-264.34C1464.39,-274.86 1517.59,-288.72 1564.88,-299 1583.36,-303.02 1603.21,-306.87 1622.25,-310.35"/>
<polygon fill="magenta" stroke="magenta" points="1621.66,-313.8 1632.12,-312.14 1622.9,-306.91 1621.66,-313.8"/>
</g>
<!-- anon_vma_alloc -->
<g id="node63" class="node">
<title>anon_vma_alloc</title>
<ellipse fill="none" stroke="magenta" cx="1717.62" cy="-180" rx="83.39" ry="18"/>
<text text-anchor="middle" x="1717.62" y="-176.3" font-family="Times,serif" font-size="14.00">anon_vma_alloc</text>
</g>
<!-- __anon_vma_prepare&#45;&gt;anon_vma_alloc -->
<g id="edge16" class="edge">
<title>__anon_vma_prepare&#45;&gt;anon_vma_alloc</title>
<path fill="none" stroke="magenta" d="M1439.41,-235.29C1499.24,-223.35 1585.59,-206.13 1645.96,-194.09"/>
<polygon fill="magenta" stroke="magenta" points="1646.67,-197.52 1655.8,-192.13 1645.31,-190.65 1646.67,-197.52"/>
</g>
<!-- search_cmp_ftr_reg -->
<g id="node48" class="node">
<title>search_cmp_ftr_reg</title>
<ellipse fill="none" stroke="magenta" cx="3400.29" cy="-780" rx="101.28" ry="18"/>
<text text-anchor="middle" x="3400.29" y="-776.3" font-family="Times,serif" font-size="14.00">search_cmp_ftr_reg</text>
</g>
<!-- kmem_cache_alloc&#45;&gt;__kmem_cache_alloc_lru.isra.0 -->
<g id="edge19" class="edge">
<title>kmem_cache_alloc&#45;&gt;__kmem_cache_alloc_lru.isra.0</title>
<path fill="none" stroke="magenta" d="M2135.34,-203C2155.3,-203 2176.89,-203 2198.5,-203"/>
<polygon fill="magenta" stroke="magenta" points="2198.77,-206.5 2208.77,-203 2198.77,-199.5 2198.77,-206.5"/>
</g>
<!-- post_alloc_hook&#45;&gt;kernel_init_pages -->
<g id="edge54" class="edge">
<title>post_alloc_hook&#45;&gt;kernel_init_pages</title>
<path fill="none" stroke="magenta" d="M3483.69,-572C3514.23,-572 3549.21,-572 3581.22,-572"/>
<polygon fill="magenta" stroke="magenta" points="3581.5,-575.5 3591.5,-572 3581.5,-568.5 3581.5,-575.5"/>
</g>
<!-- lock_vma_under_rcu&#45;&gt;down_read_trylock -->
<g id="edge52" class="edge">
<title>lock_vma_under_rcu&#45;&gt;down_read_trylock</title>
<path fill="none" stroke="magenta" d="M940.98,-533C949.87,-533 958.87,-533 967.78,-533"/>
<polygon fill="magenta" stroke="magenta" points="967.78,-536.5 977.78,-533 967.78,-529.5 967.78,-536.5"/>
</g>
<!-- __alloc_pages&#45;&gt;prepare_alloc_pages.constprop.0 -->
<g id="edge73" class="edge">
<title>__alloc_pages&#45;&gt;prepare_alloc_pages.constprop.0</title>
<path fill="none" stroke="magenta" d="M2430.14,-539.67C2469.22,-536.64 2519.63,-532.73 2566.87,-529.07"/>
<polygon fill="magenta" stroke="magenta" points="2567.2,-532.56 2576.9,-528.3 2566.66,-525.58 2567.2,-532.56"/>
</g>
<!-- get_page_from_freelist -->
<g id="node60" class="node">
<title>get_page_from_freelist</title>
<ellipse fill="none" stroke="magenta" cx="2710.84" cy="-572" rx="116.18" ry="18"/>
<text text-anchor="middle" x="2710.84" y="-568.3" font-family="Times,serif" font-size="14.00">get_page_from_freelist</text>
</g>
<!-- __alloc_pages&#45;&gt;get_page_from_freelist -->
<g id="edge74" class="edge">
<title>__alloc_pages&#45;&gt;get_page_from_freelist</title>
<path fill="none" stroke="magenta" d="M2430.14,-550.33C2477.49,-554 2541.46,-558.96 2596.28,-563.2"/>
<polygon fill="magenta" stroke="magenta" points="2596.16,-566.7 2606.4,-563.99 2596.7,-559.73 2596.16,-566.7"/>
</g>
<!-- bsearch&#45;&gt;search_cmp_ftr_reg -->
<g id="edge32" class="edge">
<title>bsearch&#45;&gt;search_cmp_ftr_reg</title>
<path fill="none" stroke="magenta" d="M3107.22,-780C3153.82,-780 3227.12,-780 3288.62,-780"/>
<polygon fill="magenta" stroke="magenta" points="3288.77,-783.5 3298.77,-780 3288.77,-776.5 3288.77,-783.5"/>
</g>
<!-- el0_ia -->
<g id="node58" class="node">
<title>el0_ia</title>
<ellipse fill="none" stroke="magenta" cx="37.7" cy="-587" rx="37.89" ry="18"/>
<text text-anchor="middle" x="37.7" y="-583.3" font-family="Times,serif" font-size="14.00">el0_ia</text>
</g>
<!-- el0_ia&#45;&gt;do_mem_abort -->
<g id="edge67" class="edge">
<title>el0_ia&#45;&gt;do_mem_abort</title>
<path fill="none" stroke="magenta" d="M75.47,-587C83.37,-587 92.04,-587 100.95,-587"/>
<polygon fill="magenta" stroke="magenta" points="101.1,-590.5 111.1,-587 101.1,-583.5 101.1,-590.5"/>
</g>
<!-- folio_add_lru_vma&#45;&gt;folio_add_lru -->
<g id="edge11" class="edge">
<title>folio_add_lru_vma&#45;&gt;folio_add_lru</title>
<path fill="none" stroke="magenta" d="M1408.29,-101.49C1446.93,-85.11 1509.13,-60.3 1564.88,-45 1590.85,-37.87 1619.85,-32.18 1645.49,-27.89"/>
<polygon fill="magenta" stroke="magenta" points="1646.2,-31.32 1655.51,-26.26 1645.07,-24.41 1646.2,-31.32"/>
</g>
<!-- get_page_from_freelist&#45;&gt;prep_new_page -->
<g id="edge9" class="edge">
<title>get_page_from_freelist&#45;&gt;prep_new_page</title>
<path fill="none" stroke="magenta" d="M2827.26,-572C2872.57,-572 2923.84,-572 2966.57,-572"/>
<polygon fill="magenta" stroke="magenta" points="2966.67,-575.5 2976.67,-572 2966.67,-568.5 2966.67,-575.5"/>
</g>
<!-- read_sanitised_ftr_reg&#45;&gt;get_arm64_ftr_reg -->
<g id="edge23" class="edge">
<title>read_sanitised_ftr_reg&#45;&gt;get_arm64_ftr_reg</title>
<path fill="none" stroke="magenta" d="M2154.29,-780C2186.47,-780 2221.36,-780 2253.08,-780"/>
<polygon fill="magenta" stroke="magenta" points="2253.26,-783.5 2263.26,-780 2253.26,-776.5 2253.26,-783.5"/>
</g>
<!-- vma_alloc_zeroed_movable_folio&#45;&gt;__folio_alloc -->
<g id="edge28" class="edge">
<title>vma_alloc_zeroed_movable_folio&#45;&gt;__folio_alloc</title>
<path fill="none" stroke="magenta" d="M1528.76,-444.04C1627.06,-443.68 1756.06,-443.64 1870.36,-445 1901.06,-445.36 1934.91,-446.1 1964.15,-446.85"/>
<polygon fill="magenta" stroke="magenta" points="1964.2,-450.35 1974.29,-447.11 1964.38,-443.35 1964.2,-450.35"/>
</g>
<!-- anon_vma_alloc&#45;&gt;kmem_cache_alloc -->
<g id="edge51" class="edge">
<title>anon_vma_alloc&#45;&gt;kmem_cache_alloc</title>
<path fill="none" stroke="magenta" d="M1796.89,-185.63C1840.07,-188.73 1894.11,-192.61 1940.13,-195.92"/>
<polygon fill="magenta" stroke="magenta" points="1939.89,-199.41 1950.12,-196.64 1940.4,-192.43 1939.89,-199.41"/>
</g>
<!-- anon_vma_free&#45;&gt;kmem_cache_free -->
<g id="edge56" class="edge">
<title>anon_vma_free&#45;&gt;kmem_cache_free</title>
<path fill="none" stroke="magenta" d="M2440.37,-72C2489.9,-72 2554.23,-72 2607.62,-72"/>
<polygon fill="magenta" stroke="magenta" points="2607.8,-75.5 2617.8,-72 2607.8,-68.5 2607.8,-75.5"/>
</g>
</g>
</svg>
